/* XPM */
static char *_0a04b1cb4ff4c09bc2cee2246128222o5vENVJiSgtx4eZv[] = {
/* columns rows colors chars-per-pixel */
"50 50 254 2 ",
"   c #585858",
".  c #686868",
"X  c #787878",
"o  c #AB3F00",
"O  c #9B4409",
"+  c #AD4300",
"@  c #B44B00",
"#  c #BA5904",
"$  c #A44913",
"%  c #BF6609",
"&  c #89553F",
"*  c #975B3D",
"=  c #A45A2B",
"-  c #A76838",
";  c #B37236",
":  c #CA5402",
">  c #C45B00",
",  c #CC5C00",
"<  c #D25F01",
"1  c #C56303",
"2  c #CC6402",
"3  c #CB6B02",
"4  c #CA6A09",
"5  c #D36704",
"6  c #D36B00",
"7  c #CB7206",
"8  c #D47302",
"9  c #DB7C01",
"0  c #D87806",
"q  c #C76F13",
"w  c #C87419",
"e  c #D57C14",
"r  c #FD6C03",
"t  c #E47602",
"y  c #E47C02",
"u  c #FB7702",
"i  c #F37D14",
"p  c #C67B29",
"a  c #D17E32",
"s  c #E77123",
"d  c #955E45",
"f  c #9B6549",
"g  c #9D6651",
"h  c #A46A47",
"j  c #AC774B",
"k  c #B3774A",
"l  c #A77051",
"z  c #B47C55",
"x  c #91796A",
"c  c #B48131",
"v  c #DF8404",
"b  c #DC8909",
"n  c #DF920C",
"m  c #D88317",
"M  c #D9921A",
"N  c #E38403",
"B  c #E48B02",
"V  c #E98508",
"C  c #E48C0A",
"Z  c #F98803",
"A  c #FD8D03",
"S  c #EB9204",
"D  c #E99506",
"F  c #EC9C0B",
"G  c #FC9501",
"H  c #F69808",
"J  c #E78A16",
"K  c #F98F18",
"L  c #E89616",
"P  c #EA951A",
"I  c #EC9D1C",
"U  c #FA9917",
"Y  c #EEA10A",
"T  c #FCA203",
"R  c #FAAA07",
"E  c #F2A40D",
"W  c #FDA30B",
"Q  c #FCAA0C",
"!  c #FDB806",
"~  c #FDB40C",
"^  c #EFAA13",
"/  c #F7A716",
"(  c #F5AA14",
")  c #FCAB14",
"_  c #F4A51C",
"`  c #FEA51A",
"'  c #FDAC1B",
"]  c #EDB714",
"[  c #FCB515",
"{  c #FCB21C",
"}  c #FDBA1D",
"|  c #CE832C",
" . c #D7892A",
".. c #DC9925",
"X. c #D48B34",
"o. c #CD933E",
"O. c #D99536",
"+. c #DB9A3C",
"@. c #EC9B23",
"#. c #E49928",
"$. c #E29C34",
"%. c #DDA43A",
"&. c #EFA92B",
"*. c #F3A424",
"=. c #FBA423",
"-. c #F4AB22",
";. c #FCAB24",
":. c #F4AD2B",
">. c #F9AC2A",
",. c #FCB523",
"<. c #FEBD22",
"1. c #F6B229",
"2. c #FCB42A",
"3. c #FDBC2B",
"4. c #E8A839",
"5. c #F6AC35",
"6. c #EEB433",
"7. c #F4B333",
"8. c #FBB434",
"9. c #FCBB33",
"0. c #F3B33D",
"q. c #F8BA39",
"w. c #FDCB0A",
"e. c #FDD90B",
"r. c #EFCF1A",
"t. c #FCC91B",
"y. c #FBD818",
"u. c #FCE618",
"i. c #FDF611",
"p. c #FCC723",
"a. c #FDC224",
"s. c #FEC42B",
"d. c #FECD2D",
"f. c #E5D125",
"g. c #FBD629",
"h. c #F6C237",
"j. c #FEC434",
"k. c #FDCB34",
"l. c #FDC43B",
"z. c #FDCA3C",
"x. c #FED334",
"c. c #FEDE34",
"v. c #FDD33B",
"b. c #FDDB3C",
"n. c #FEE826",
"m. c #FBEA34",
"M. c #FEE53D",
"N. c #FEF536",
"B. c #9A8059",
"V. c #B8834B",
"C. c #BD8C5B",
"Z. c #9B9777",
"A. c #AF9C79",
"S. c #BBAE77",
"D. c #C58746",
"F. c #CB924B",
"G. c #D6984B",
"H. c #C38E54",
"J. c #C89457",
"K. c #D8A346",
"L. c #DAA655",
"P. c #D4B051",
"I. c #E4A847",
"U. c #E9AD4E",
"Y. c #E9B848",
"T. c #F6B846",
"R. c #FCBC42",
"E. c #EAB859",
"W. c #F7BC56",
"Q. c #CC9160",
"!. c #C2A965",
"~. c #DAA964",
"^. c #CBB96C",
"/. c #D7B564",
"(. c #C5AC77",
"). c #CEBC7B",
"_. c #E8B762",
"`. c #E3B56C",
"'. c #CEC848",
"]. c #ECCD4A",
"[. c #FEC443",
"{. c #FDCC44",
"}. c #F6C54A",
"|. c #FCC54B",
" X c #FDCD4C",
".X c #FED344",
"XX c #FDD944",
"oX c #FDD44C",
"OX c #FCD949",
"+X c #E8C958",
"@X c #F5C656",
"#X c #FCC353",
"$X c #FDCB53",
"%X c #FCCC5B",
"&X c #FED353",
"*X c #FCDA53",
"=X c #FCD35B",
"-X c #FEDA5C",
";X c #FDE443",
":X c #FDE848",
">X c #FEF944",
",X c #FEF84A",
"<X c #FEE657",
"1X c #FEE75A",
"2X c #FEF65A",
"3X c #D6C269",
"4X c #D4C67C",
"5X c #FFD963",
"6X c #FAD66A",
"7X c #EDCB70",
"8X c #FED977",
"9X c #FCE967",
"0X c #FEF866",
"qX c #FCE87A",
"wX c #FFFB77",
"eX c #7B8088",
"rX c #848483",
"tX c #87868A",
"yX c #8C8C8C",
"uX c #97948E",
"iX c #888B95",
"pX c #949494",
"aX c #999793",
"sX c #97989A",
"dX c #9D9D9D",
"fX c #A69985",
"gX c #A69D95",
"hX c #A19F9D",
"jX c #ACA486",
"kX c #B3AA89",
"lX c #B9B287",
"zX c #A9A697",
"xX c #A2A19E",
"cX c #B2AA95",
"vX c #B7B196",
"bX c #8E93A3",
"nX c #969AA5",
"mX c #9C9DA4",
"MX c #9C9FA9",
"NX c #9EA1A5",
"BX c #9DA3AA",
"VX c #A1A1A1",
"CX c #A8AAA5",
"ZX c #A2A4AA",
"AX c #AAAAAA",
"SX c #B3B2AD",
"DX c #C9B887",
"FX c #D9C48A",
"GX c #CBC590",
"HX c #F0D98F",
"JX c #FEE784",
"KX c #FDF48E",
"LX c #FCEC96",
"PX c #F8F0AA",
/* pixels */
"VXVXVXVXVXVXVXVXVXxXVXVXyXsXVXVXVXVXVXVXVXVXVXVXVXdXVXVXVXVXVXpXaXVXVXVXVXdXpXVXVXVXVXVXVXVXVXVXVXVX",
"VXVXVXVXVXVXVXVXVXVXVXNXyXdXVXVXVXVXVXVXVXVXVXVXmXpXVXVXVXVXVXsXsXVXVXVXxXNXsXdXVXVXVXVXVXVXVXVXVXVX",
"VXVXVXVXVXVXCXZXVXVXVXVXpXdXVXVXVXVXVXVXVXVXVXVXxXyXVXVXVXVXVXxXdXVXVXdXsXVXdXdXVXVXVXVXVXVXVXVXVXVX",
"VXdXVXVXVXVXVXVXxXVXVXdXaXVXVXVXVXVXVXVXVXVXVXVXVXyXdXVXVXVXVXVXVXVXVXVXVXVXxXVXVXVXVXVXVXVXVXVXVXVX",
"VXVXVXxXVXVXVXVXNXxXVXsXyXdXVXVXVXVXVXVXVXVXVXVXhXyXhXVXVXVXVXdXpXVXNXVXsXpXuXNXVXVXVXVXVXVXVXVXVXVX",
"VXpXaXZXVXVXVXVXVXVXVXVXpXdXVXVXxXNXVXVXVXVXVXVXVXaXVXVXVXhXxXpXpXxXxXVXxXsXpXxXVXVXVXVXVXVXVXVXVXVX",
"dXVXVXVXVXVXVXVXVXVXVXVXyXdXVXVXVXVXVXxXVXVXVXmXnXdXVXVXVXmXnXiXsXBXxXVXNXxXxXNXVXVXVXVXVXVXVXVXVXVX",
"VXVXVXVXVXVXVXVXVXVXVXVXyXdXVXVXVXVXVXVXVXZXzXkXA.aXNXVXVXjXS.!.S.kXNXVXBXNXsXxXVXVXVXVXVXVXVXVXVXsX",
"VXVXVXVXVXVXVXVXNXVXVXVXyXsXVXVXNXxXNXNXxX+.OXXX} F A.BXjXY R p.k.#.gXBXkX(.jXBXVXVXVXxXVXxXNXVXVXVX",
"VXZXCXVXVXVXVXdXsXxXVXdXrXsXxXVXVXVXcXzXBXJ.7.wXx.T m z | F ) x.{.y p o.[ g.[ J.NXVXxXmXxXVXxXVXVXVX",
"iXsXsXdXVXVXdXrXyXxXxXX   yXxXsXaXdX+X0.o.; 0 5X<X( v > 5 D } .X:.3 6 S k.k.H S.NXVXxXxXmXxXVXVXVXVX",
"X x tXpXdXNXxXyXpXdXyXX . rXdXpXX tXvX5XP 5 > J 5X3.B > < b { {.J 5 t ( s.S V.NXxXNXNXVXxXVXVXVXVXVX",
"AXAXCXVXVXVXVXVXVXVXxXVXVXNXNXxXsXxXNXGX#Xe , , 5.{.F 2 : v { :.6 6 S ;.V 6 :.DXmXxXVXdXVXVXVXVXVXVX",
"NXNXVXVXVXVXVXVXVXVXVXNXxXVXVXxXNXxXNXmXDX&.5 > 0 [.-.9 , 9 _ L 2 9 / C 6 =.3XzXNXxXVXVXVXVXVXVXVXVX",
"VXNXVXVXVXVXVXVXVXVXVXVXVXVXxXVXNXxXxXxXMX(.L 5 , L ;.B 6 9 _ b 8 N y 6 I (.pXmXxXNXVXVXVXVXVXVXVXxX",
"xXVXxXVXVXVXVXVXVXVXVXVXVXVXNXxXxXxXNXxXVXnX(.@. .$.Y.Y.4.4.I.4.$. .p X.cXBXyXdXVXVXVXVXVXVXVXVXNXhX",
"xXxXxXNXVXVXVXVXVXVXxXNXVXVXVXVXxXxXNXxXxXvXDXU.+.X.G.+.+.+.+.O.O.p  .p gXmXtXsXxXxXVXxXmXxXVXVXxXxX",
"xXNXxXVXVXVXVXVXVXVXxXNXVXVXVXxXNXVXxXNXvXFXG.$.4 4 1 1 4 7 7 1 3 1 > 5 e A.eXyXxXxXVXVXxXxXVXVXNXNX",
"NXxXVXVXVXVXVXVXVXNXMXMXNXNXVXxXVXVXNXcXHX%.N #.8 N V H B D B N S V 6 0 t V B.iXaXdXNXxXxXNXVXVXxXxX",
"xXNXVXVXVXVXxXNXVXvX).4XDXcXVXNXVXVXNXFXq.9 V $.0 J / [ H E E v F / 9 0 v N D A.sXrXdXVXxXNXxXVXNXxX",
"xXxXNXxXVXNXxXNX4X' U { l.j.T.).CXmXCXT.0 y H 4.m P ;.' F { { v D } &.9 B L S ,.cXBXxXVXVXVXVXVXxXNX",
"xXNXVXVXVXVXVXzX9X' U ;.9.s.a.a.OXGX4X#.8 U W 4.O.I ,.{ *.2.j.F C } z.I y U :.H Y.AXxXNXVXVXVXVXNXxX",
"VXVXVXVXNXVXNXlXN.qXs.k.XX:X:X;X:X;X&X#.J _ ' T.O.*.3.3.2.q.oX7.D ,.z.|.V V 8.8.! ^.MXNXVXxXxXVXVXVX",
"pXxXxXNXxXxXpXuXf.x.-X,.) <.p.k.x.p.s.T.@.:.8.T.O.:.k.9.9.q.&XW.P ( l.-X8.y P $X{ a.zXpXxXNXNXxXxXyX",
"yXCXAXAXVXVXsXyXjXI U {.%XR.) [ } <.t.}.&.q. X}.O.q.{.l.q.R.5X/.I.-.|.=X=XP V R.$X~ /.iXdXAXCXAXdXrX",
"CXVXAXAXAXAXSXSXSXSXX.W ,X0Xz.9.z.v.XXY.4.|. X}.O.h.&X@X_._.`.C.H.+.L.E.6X8.y _ 5X2.t.vXVXVXAXCXVXVX",
"mXVXVXdXVXVXVXVXVXVXZXjX'.g.R Q t.u.r.7.R.$XoX@X$.@X/.L.G.I.&XJ.D.-.7.U.%X%XJ Z $X%XQ ^.MXVXxXNXVXVX",
"dXVXVXVXVXZXVXZXVXxXVXdXiXZXY.y C 6.T.8.|.%X-X@X4.L.Y.&XT.U.*XJ.k :.9.W.%X=X;.y R.8X` 6.zXmXVXVXVXVX",
"VXVXVXVXVXVXVXVXVXVXVXxXsXvX@.5 O.W.5.q.$X5X=XY.P.J.`.7X~.Q.6XJ.l 0.9.R.#X=X9.y :.JX5.W lXBXVXxXVXVX",
"VXVXVXVXVXVXVXVXVXVXVXVXmX/.t 4 T.W.:.T.%XqX6X+X<XI.J.F.D.j J.l f J.L._.W.$X[.V P JX#XZ /.NXxXNXVXVX",
"VXVXVXVXVXVXCXZXVXVXVXhXsX$.< i #XT.@.T.=XLXJX9X1X:X&X X0.H.l.F.h O.X.X.Q.E.{.K C LX8XZ I.xXxXVXxXsX",
"VXVXVXVXVXhXhXVXVXVXVXbXfXJ :  .Y.4.J I.=XLXKX9X<XOX=XoX0.D.9.F.h 0.3.T.z F.oXK V 8X6Xi I zXnXNXVXVX",
"dXZXhXVXxXyXxXVXNXNXcXlXE.:.#.4.W.4.M 4.@XLXKX9X<X].~.7XE.j W.C.f G.J.z h 5.{.U t 6X6X=.q.7XGXvXxXxX",
"dXVXVXVXdXsXNXNXvX+X3.s.s.l.&X;X9XOXOXoX@XHXPX9X<X].f g g d l f & d * - $.q.q.=.@.{.3.a.;XM.d.k.GXBX",
"VXVXVXVXVXxXNXcX3.G =.2.z.;X:X;Xb.p.s.XX} %XPXqX<Xb.%.k - * ; - * ; P _ 2.7.z.k.s.{ s.M.:Xv.a.} *XCX",
"sXVXVXdXNXNXNXFXz.;.9.z.x.k.d.p.a.a.<.OX} s.HXqX*Xx.OX.X&.k &.V.- :.{ ^ -.9.2.U ;.x.:Xb.s.a.} .Xm.S.",
"rXVXnXZ./.}.R.p.2XqXz.,.' ` ) { 9.z.:Xg.k.M.'.7X*Xk.z. X7.| _ X.; <.^ F -.l.A U j.k.<.) ( { .Xc.y.zX",
"pXVX^.' ` ' <.p.i.g.W.|..XJX5Xz.|.x.e.g.g.u...K.&Xz.j.{.9.^ { <.,.{ ( S L OX5X&Xk.,.8.$XoXl.[ ] kXmX",
"VXvXl.A =.s.b.c.w.! G U } N.g.R ! ~ G T w.M...| 4.h.a.h.9.( ( { ' ,.Y B C ] wXKX X[.v.wXN.( K.xXNXdX",
"MXlX9XJX{.3.,./ u r y.u.t.w.W ! c.q.,.s.g.y.m p  .4.-.3.2./ _ ( Q ( Y v v F ] ] Z u V ] 3XdXBXVXxXxX",
"NXcXm.qX6X X8.T.K A c.:XA r G n.N.d.U =.3.g.M % w  .M I _ F Y R E Q D 9 9 n v 7 n 8 > X.hXsXhXVXVXNX",
"BXkX2Xg.A U { 2Xn.Z t.>X8XR.` y.u.R A >.:.9.7.P w q e m C B B Y E ^ v 6 7 M 0 7 0 1 | cXmXhXVXVXVXVX",
"sXkXm.9X$X;.) y.! u XX2X2.U ;.:X>X) >.U i U ` k.7.M e 4 2 3 8 B D D 8 3 7 b 7 3 3 ; kXNXyXsXVXVXxXVX",
"NXkX:Xg.H =.l.,Xu.~ y.0X8X8.` w.u.G j.h.U Q XXU U <.k.#.# @ # 3 v 7 # # 1 % # % j hXxXaXX yXdXVXNXpX",
"BXjXN.2X|.=.H u.w.u b.n.Q 5.l.M.m.~ m..XT e.0X9.` ' ,.<.1.q o @ @ + + + O O h fXZXVXxXZXdXVXVXVXVXxX",
"xXNXS.r.` 2.<.n.y.G y.0X=X5.G e.i.G ~ k.r ! ,X-X3.v.b.x.p.s.p O O $ = f x aXBXNXhXVXVXVXdXdXVXVXxXNX",
"VXVXNXjXC. .L u.r.s b.n.%XR.l.;X:Xt.Z K ' u R |.9.' k.;X:XM.:XlXaXdXBXBXAXVXVXVXVXVXVXVXdXdXVXVXVXxX",
"VXVXVXNXBXBXNXxXzXxX].2X|.K H e.i.G r A n.%XZ u .X2.W } d.b.x.].CXBXxXxXVXhXVXVXVXVXVXVXaXsXVXVXVXVX",
"VXVXVXVXxXVXVXVXVXBXS.u.s.[.j.c.M.p.W T u.g.) G ! N.{.) { p.s.<.GXsXxXVXxXNXVXVXNXVXxXxXaXaXNXxXNXxX",
"rXVXVXVXVXVXNXVXhXhXdXZ.c i S e.i.! i a !.S u R e.i.g.oXj.} <.p.GXnXxXdXxXxXxXxXxXNXVXNXyXpXxXNXNXxX"
};
