/* XPM */
static char *_1f265ccb373489ccde3fd176c76511eeoDrB3LSkwlVOh0f[] = {
/* columns rows colors chars-per-pixel */
"50 50 176 2 ",
"   c #010100",
".  c #090405",
"X  c #090906",
"o  c #040B0C",
"O  c #0D0C0B",
"+  c #130001",
"@  c #160807",
"#  c #1B0D0A",
"$  c #0B120D",
"%  c #13130C",
"&  c #19190C",
"*  c #150C11",
"=  c #180811",
"-  c #151412",
";  c #1A1315",
":  c #1C1C14",
">  c #1A1A19",
",  c #330406",
"<  c #350A0A",
"1  c #3A0B0A",
"2  c #201F16",
"3  c #22161D",
"4  c #221C1E",
"5  c #1F2117",
"6  c #222216",
"7  c #25241A",
"8  c #29251C",
"9  c #262D1F",
"0  c #2B2B1D",
"q  c #291621",
"w  c #2C1A25",
"e  c #331E2A",
"r  c #391F2E",
"t  c #252420",
"y  c #2D2C22",
"u  c #2D2C2B",
"i  c #302F24",
"p  c #36222D",
"a  c #39222F",
"s  c #32282C",
"d  c #343324",
"f  c #383726",
"g  c #393827",
"h  c #33322C",
"j  c #363B29",
"k  c #3C3B2A",
"l  c #3C2432",
"z  c #332D31",
"x  c #3C2C34",
"c  c #353433",
"v  c #3A3335",
"b  c #3C3638",
"n  c #3D3B3A",
"m  c #631414",
"M  c #6F1A18",
"N  c #403F2D",
"B  c #422736",
"V  c #422A37",
"C  c #452C3A",
"Z  c #4A2D3D",
"A  c #45343C",
"S  c #433C3F",
"D  c #43422E",
"F  c #464530",
"G  c #484733",
"H  c #4B4A34",
"J  c #44413A",
"K  c #504F37",
"L  c #505036",
"P  c #535239",
"I  c #5C593E",
"U  c #4C3341",
"Y  c #453C41",
"T  c #4D3C45",
"R  c #533345",
"E  c #573749",
"W  c #593649",
"Q  c #5C3A4D",
"!  c #5F3D50",
"~  c #623E52",
"^  c #464544",
"/  c #494545",
"(  c #484847",
")  c #4B4949",
"_  c #534B4F",
"`  c #53524F",
"'  c #584F56",
"]  c #555454",
"[  c #585754",
"{  c #595857",
"}  c #5E5458",
"|  c #5B5A5A",
" . c #664256",
".. c #684357",
"X. c #6C455A",
"o. c #6F485D",
"O. c #70475D",
"+. c #71495E",
"@. c #605E5E",
"#. c #636262",
"$. c #686766",
"%. c #6B6B6A",
"&. c #6F716F",
"*. c #796C76",
"=. c #747473",
"-. c #787877",
";. c #7D707C",
":. c #7B7B7B",
">. c #871E1C",
",. c #9D211F",
"<. c #D3302D",
"1. c #EB3532",
"2. c #83767F",
"3. c #807F7E",
"4. c #857683",
"5. c #8C7E88",
"6. c #848484",
"7. c #898887",
"8. c #8B8B8B",
"9. c #8E8E8D",
"0. c #90908E",
"q. c #988696",
"w. c #8F9290",
"e. c #909090",
"r. c #909391",
"t. c #939393",
"y. c #949494",
"u. c #959695",
"i. c #979997",
"p. c #969798",
"a. c #979899",
"s. c #999999",
"d. c #999A99",
"f. c #9B9B9B",
"g. c gray61",
"h. c #9D9D9D",
"j. c #9E9E9D",
"k. c #A0A09F",
"l. c #9E9FA0",
"z. c #AB97AA",
"x. c #9FA0A1",
"c. c #A0A0A0",
"v. c #A1A1A1",
"b. c gray64",
"n. c #A4A4A4",
"m. c #A5A6A5",
"M. c #A7A7A7",
"N. c #A9A7A3",
"B. c #ADA9A5",
"V. c #A6A7A9",
"C. c #A8A7A8",
"Z. c #A7A8A8",
"A. c #A8A8A8",
"S. c #A9A9AA",
"D. c #ABABAB",
"F. c #ACACAC",
"G. c #B0ABA6",
"H. c #B2AEA9",
"J. c #B6B1AB",
"K. c #BCB5AB",
"L. c #BFB8AE",
"P. c #BEA6BA",
"I. c #B3B3B3",
"U. c #B8B6B2",
"Y. c #BDBBB9",
"T. c #C5BCAF",
"R. c #C6BCB1",
"E. c #C9BEB1",
"W. c #CDC2B3",
"Q. c #D1C5B5",
"!. c #D6C8B7",
"~. c #DCCDB9",
"^. c #E1CFBA",
"/. c #E4D2BC",
"(. c #E8D5BE",
"). c #D6BCD6",
/* pixels */
"c.c.n.c.c.n.n.c.b.k.b.x.9.f.b.b.c.c.c.c.n.b.b.b.x.f.x.x.k.m.m.u.r.c.c.c.c.c.t.l.c.c.c.n.c.c.b.c.c.c.",
"c.c.c.c.c.c.c.n.b.k.k.k.8.f.b.b.b.c.c.b.c.c.c.b.z.r.x.x.k.k.x.j.f.c.c.n.c.c.f.j.c.c.c.c.b.c.c.n.c.n.",
"c.c.c.c.c.c.n.c.k.k.c.x.i.j.b.c.c.c.c.c.c.c.c.b.j.w.g.x.b.k.k.k.x.k.k.x.j.c.j.c.n.c.c.c.c.c.c.c.c.b.",
"c.c.c.n.c.c.n.c.x.x.n.f.r.c.c.c.b.c.b.b.b.n.c.c.k.9.g.x.b.k.k.k.b.k.k.c.c.c.c.c.c.c.n.c.c.c.n.n.n.c.",
"c.c.c.c.c.c.c.n.x.c.b.a.8.j.c.c.c.c.c.b.c.c.c.c.x.8.z.c.x.k.k.j.y.k.k.k.g.y.r.c.c.c.c.c.n.c.c.c.b.c.",
"c.y.f.n.n.c.c.c.x.c.b.Z.y.g.b.b.c.c.c.b.c.b.c.c.x.i.j.n.x.x.x.r.d.k.k.b.j.a.y.x.c.n.c.c.c.c.b.b.c.c.",
"c.c.c.c.n.c.c.c.j.c.b.c.e.j.b.c.c.b.b.c.c.b.c.k.j.j.c.c.c.k.j.9.i.x.x.m.z.g.j.j.c.n.c.c.b.c.b.c.c.c.",
"c.n.n.n.c.c.c.c.z.l.b.c.8.f.c.n.b.c.c.c.c.n.b.k.y.i.c.c.c.k.b.j.g.m.k.x.x.x.j.c.c.c.c.c.c.c.c.c.l.f.",
"c.c.n.c.k.k.k.x.x.m.m.x.6.a.c.c.x.k.x.b.b.k.b.b.a.r.k.z.j.x.x.x.k.x.k.k.c.c.l.c.c.c.c.c.c.c.c.n.c.c.",
"c.n.n.n.k.k.x.k.d.x.m.g.6.f.c.c.b.b.b.x.b.Z.b.x.r.9.b.b.k.x.k.x.k.x.x.k.b.c.j.c.c.c.b.c.c.c.c.c.c.n.",
"9.f.f.j.z.j.j.6.r.x.g.:.{ w.l.j.i.d.x.g.j.7.=.&.-.6.j.g.x.g.k.w.9.x.k.k.c.i.9.k.b.c.c.c.c.c.c.c.c.c.",
"-.:.7.y.l.l.j.8.i.g.8.=.$.6.j.y.:.7.g.c.y.-.:.=.#.#.r.k.Z.g.w.3.:.9.f.b.F.7.-.b.c.c.c.c.c.b.b.b.c.c.",
"D.F.S.b.c.c.c.b.x.x.c.c.b.c.b.c.i.j.k.n.n.b.S.x.w.%.b.U.A.m.x.x.b.b.c.Z.S.c.8.z.b.c.c.c.c.c.c.c.n.c.",
"c.c.c.b.b.c.c.c.b.k.c.c.c.c.c.c.b.k.c.c.c.b.z.x.r.#.j.S.j.x.k.m.b.n.b.c.c.i.r.k.c.c.c.c.c.b.b.c.c.c.",
"c.c.c.c.c.c.b.c.k.b.k.c.c.c.c.c.b.c.c.c.c.c.c.c.a.%.r.b.k.b.k.k.c.n.b.c.b.j.y.k.c.c.b.c.c.c.c.c.c.c.",
"l.c.c.n.b.c.c.c.k.k.c.c.b.c.c.b.c.c.c.c.b.c.c.x.b.0.g.n.k.b.k.b.c.c.x.b.b.c.r.j.b.b.c.c.c.c.b.b.c.c.",
"k.b.c.c.c.c.n.c.c.c.b.c.c.b.b.c.c.c.c.c.k.k.c.c.k.y.k.k.c.n.c.c.b.c.c.c.b.c.7.i.x.x.x.c.c.c.b.c.k.k.",
"c.b.c.c.n.k.n.c.c.c.b.c.b.c.c.b.c.c.b.c.x.k.c.c.x.y.k.x.n.c.c.c.c.c.b.b.b.c.3.w.x.x.c.c.c.c.c.c.x.b.",
"c.c.n.k.c.c.c.c.b.c.c.c.c.c.c.c.c.c.c.c.k.k.k.k.j.y.c.x.c.c.c.c.c.c.c.c.b.j.:.7.a.a.c.c.c.c.c.b.x.x.",
"c.c.c.c.c.c.c.k.c.c.c.c.k.c.c.b.b.b.c.b.S.b.n.S.n.6.f.S.n.n.S.S.b.c.c.j.z.j.8.a.j.7.g.c.c.c.c.c.k.b.",
"c.c.b.b.k.k.k.Z.F.Z.Z.Z.S.S.c.c.c.c.S.f.-.w.9.%.6.6.r.r.0.y.-.%.j.c.l.b.S.y.3.w.y.f.C.S.k.c.c.c.b.x.",
"c.c.b.c.k.S.n.7.{ / / / | 7.c.n.c.S.=.t % J :   4 > h j : y u 4.S.b.f.7.] Y A U T ^ ) :.S.n.c.c.k.k.",
"b.c.c.c.S.:.S C Z E E E Z l c r.F.$.6 : d 7 i D i 6 F f 7 X $ ^ :.l.7.; 3 R +.X...~ W C ) y.n.c.b.b.",
"y.k.k.Z.| l ! X.X...+.Q V Z ; f.=.% k D F k P D F : L H d 0 5   : { =.4 U C l  .~ ....O.R x 9.n.k.9.",
"9.n.I.[ B X.X. . .X.U w Q Z v 6.X 7 G 0 G d k 0 6 2 K 6 f y O   b 6.=.s l X.x e ..X.....+.Q v a.b.6.",
"n.F.-.B O. . .Q  .R 3 ~ ..x U u   d D 0 d 8 8 2 % d % 0 0 %       -.w.p V E +.p e Q E W W ..W / b.b.",
"b.r.x Q B r r V C * R o.W C U   0 - k D f 6 : $ : 2 D H k :       ) -.C R U X. .* a a w e w B a %.D.",
"n.n q b n ^ ^ x w 3 Q X.C C Q % D 0 0 k I 0 % 0 k D D 7 d 0 y %   ) @.Q R x  .E p ; S -.:.%.) b u r.",
"r.{ 3.a.b.b.F.:.O l l Z w C ~ O N k :   5 D d L y     7 F H H 0 : c x X.U q l e l . &.I.n.F.S.c.7.y.",
"k.D.Z.b.z.j.V.-.* v Y x ; a ~ t K 0   >., 9 I j < ,.1   d G y 0 G 7 E ~ e ; | =.#.z @.n.c.c.k.c.C.b.",
"k.k.c.x.x.x.c.8.6.j.n.c.v = e O G 6 + <.m o 7 5 m 1.M   8 f d d 7 : l p = ^ f.r.D.b.y.c.i.j.c.c.f.a.",
"k.k.n.c.c.j.j.Z.S.c.c.c.%.^ { 7 d 8   < @ 6 7 0 # <   O k f f y d u %.3.=.8.f.g.F.U.F.n.9.f.b.c.b.k.",
"k.x.x.b.x.r.j.b.k.k.c.f.r.C.C.> : D :   j k g G 0 X O 0 F j 2 ; % ( F.V.S.n.b.n.c.n.n.n.j.j.x.x.b.k.",
"k.x.k.b.x.i.k.k.c.c.c.f.9.k.0.X X d J q.f H P 0 @.P.4.f f : O     b n.k.j.x.c.c.c.c.c.c.9.y.n.c.b.k.",
"k.b.k.b.b.k.k.k.c.c.n.i.7.j.f.- X 6 _ ' *.c d 4.;.z z.y y 6 X     ^ S.k.b.c.c.b.b.c.c.n.9.y.c.c.k.b.",
"f.k.b.k.x.b.m.x.b.c.n.f.9.z.S.]   % } z *.).).z.  Y q.y j G y   - 9.b.k.c.c.b.c.b.c.c.b.y.y.n.c.x.b.",
"6.x.f.=.6.j.u.g.j.x.i.:.:.x.x.m.( : 0 *.2.2.5.4.7.q.S k f y & h 7.S.x.c.b.b.c.b.k.x.x.m.y.r.z.g.b.k.",
"r.x.f.8.r.j.r.m.F.b.z.7.:.i.x.x.C.3.n y 0 7 & & O   & : k n &.C.c.k.c.b.c.c.b.b.m.b.x.m.f.i.m.x.k.x.",
"b.b.D.I.F.F.F.F.I.S.I.F.i.x.m.k.k.D.S.f.7.%.| [ ` { #.6.r.b.F.b.c.c.c.c.b.c.b.c.k.k.k.k.g.j.x.x.b.j.",
"k.b.c.j.z.x.x.k.k.7.8.j.r.x.x.x.g.g.r.i.n.b.D.M.V.C.F.n.c.j.g.g.k.x.x.x.c.c.c.c.b.k.x.x.g.g.k.k.k.b.",
"c.b.b.c.c.b.b.n.x.F.b.c.x.b.B.J.K.K.K.T.T.T.W.T.E.R.R.W.R.R.R.T.K.K.J.F.N.n.b.c.x.x.b.k.j.g.j.c.x.k.",
"b.b.c.c.c.c.c.c.D.W.Q.!.~.~./././././.(.(.(.(./.(.(.(./.(.(.(./.(./././.~.~.!.Q.T.J.k.k.j.j.c.c.k.x.",
"f.x.c.c.c.c.k.c.W.(.(.(.(./.(././././././././././././././././././././.(.(.(.(.(.(.!.x.b.8.y.n.k.c.x.",
"j.c.c.b.c.c.c.c.x.B.J.K.K.W.Q.!.~./././././.^.^.^././.~./.~./././.~.!.W.W.T.K.J.M.x.x.r.=.0.j.c.x.y.",
"n.c.b.b.k.x.c.c.k.k.k.i.w.j.x.k.x.j.i.b.H.B.B.B.G.B.B.B.H.U.U.Y.Y.n.n.c.c.x.k.x.x.k.b.M.z.x.x.k.n.z.",
"k.c.c.c.b.c.c.b.x.b.b.j.0.x.k.x.x.f.6.i.z.k.c.c.l.x.c.c.b.c.c.b.b.c.c.c.b.c.x.x.b.k.x.b.j.j.b.b.c.c.",
"c.c.c.b.b.c.c.k.k.b.b.j.y.c.c.k.k.S.I.x.j.x.c.b.c.b.c.c.n.c.c.n.c.c.b.c.c.c.b.k.k.k.x.x.f.j.x.k.c.c.",
"c.b.c.c.c.c.b.x.x.b.b.j.0.k.b.k.x.x.j.j.x.j.b.c.c.c.c.c.c.c.c.c.c.n.c.c.b.c.c.k.b.k.b.b.i.f.k.b.c.c.",
"b.b.b.x.c.b.c.c.c.c.n.f.8.c.c.c.c.c.j.j.l.c.c.c.c.c.c.c.c.n.c.c.n.c.b.c.c.c.c.c.n.c.c.n.y.i.n.c.c.c.",
"7.c.c.c.c.c.c.c.j.k.j.6.=.j.x.x.c.n.f.f.l.c.c.c.c.c.c.c.c.c.c.c.k.c.c.c.c.c.c.c.c.c.c.c.9.r.c.j.c.c."
};
