/* XPM */
static char *_1bcd514fc8e4cc2d9f80460d585645e3fRFvkOLwCnRePCt[] = {
/* columns rows colors chars-per-pixel */
"50 50 180 2 ",
"   c #010201",
".  c #080507",
"X  c #0A0A06",
"o  c #0D0D0A",
"O  c #1C0203",
"+  c #130308",
"@  c #120D0D",
"#  c #16170A",
"$  c #14140D",
"%  c #150D11",
"&  c #0D1810",
"*  c #141312",
"=  c #191315",
"-  c #1B1B13",
";  c #1E1319",
":  c #1C1B1A",
">  c #200505",
",  c #240908",
"<  c #201F15",
"1  c #22131B",
"2  c #231C1B",
"3  c #1C2117",
"4  c #222117",
"5  c #24241A",
"6  c #2A271C",
"7  c #262A1B",
"8  c #2B2B1E",
"9  c #33341F",
"0  c #251C21",
"q  c #2D1A25",
"w  c #2C1C25",
"e  c #331E2A",
"r  c #242022",
"t  c #2B2427",
"y  c #2D2D21",
"u  c #292A29",
"i  c #302F21",
"p  c #33222B",
"a  c #39242F",
"s  c #32292D",
"d  c #2E3222",
"f  c #343324",
"g  c #3C3927",
"h  c #35332A",
"j  c #383728",
"k  c #3C3C2A",
"l  c #3C2532",
"z  c #372930",
"x  c #3B2A33",
"c  c #313030",
"v  c #3A3935",
"b  c #3E3439",
"n  c #3C3C3B",
"m  c #571110",
"M  c #641313",
"N  c #681514",
"B  c #731918",
"V  c #402435",
"C  c #412937",
"Z  c #442739",
"A  c #452B3A",
"S  c #4A2E3E",
"D  c #43363C",
"F  c #4B303F",
"G  c #423B3D",
"H  c #3F422E",
"J  c #42412D",
"K  c #454430",
"L  c #494732",
"P  c #4C4B35",
"I  c #44423F",
"U  c #504F37",
"Y  c #54523A",
"T  c #58563C",
"R  c #502F42",
"E  c #4D3241",
"W  c #463E41",
"Q  c #533345",
"!  c #573648",
"~  c #59374A",
"^  c #5C3A4D",
"/  c #623E52",
"(  c #434342",
")  c #4A4646",
"_  c #4B4847",
"`  c #4E4C4B",
"'  c #514B4C",
"]  c #51504F",
"[  c #564C54",
"{  c #545252",
"}  c #5B5356",
"|  c #5A5A55",
" . c #5B5B5B",
".. c #664155",
"X. c #684257",
"o. c #6C455A",
"O. c #6F495E",
"+. c #71495F",
"@. c #615D5E",
"#. c #61605F",
"$. c #6A5F66",
"%. c #636362",
"&. c #686766",
"*. c #6E616B",
"=. c #6C6C6B",
"-. c #776A73",
";. c #7D6E7A",
":. c #737373",
">. c #777977",
",. c #777878",
"<. c #7C7C7C",
"1. c #DD342F",
"2. c #F83834",
"3. c #80727D",
"4. c #7F817F",
"5. c #80807F",
"6. c #857883",
"7. c #848484",
"8. c #868886",
"9. c #8C8C8C",
"0. c #8F918F",
"q. c #90908F",
"w. c #968595",
"e. c #909090",
"r. c #909290",
"t. c #939393",
"y. c #949494",
"u. c #969695",
"i. c #979796",
"p. c #979897",
"a. c #9A9895",
"s. c #999999",
"d. c #9A9A99",
"f. c #9B9B9B",
"g. c #9C9C9D",
"h. c #9D9D9D",
"j. c #9C9E9C",
"k. c #9F9F9F",
"l. c #A18D9F",
"z. c #9EA09E",
"x. c #A2A09D",
"c. c #A8A49F",
"v. c #9E9FA0",
"b. c #A697A6",
"n. c #B19BAE",
"m. c #B39DB3",
"M. c #9FA0A1",
"N. c #A0A0A0",
"B. c gray64",
"V. c #A4A4A4",
"C. c #A5A6A5",
"Z. c #A6A7A6",
"A. c #A8A7A4",
"S. c #ACA9A5",
"D. c #A7A7A8",
"F. c #A8A9A9",
"G. c #A9AAA9",
"H. c #AAAAAA",
"J. c #ACABAB",
"K. c #ACACAC",
"L. c #B1ADA7",
"P. c #B3AFA9",
"I. c #B6B1AA",
"U. c #B9B3AB",
"Y. c #B9A4BA",
"T. c #AFB1B0",
"R. c #B4B4B4",
"E. c #B9B8B5",
"W. c #C3BCB3",
"Q. c #C6BFB5",
"!. c #CBC1B3",
"~. c #CEC7BE",
"^. c #D1C5B5",
"/. c #D8C9B7",
"(. c #D5CABB",
"). c #DBCCB9",
"_. c #E0CFBB",
"`. c #E5D2BC",
"'. c #E9D5BE",
"]. c #EAD7C0",
/* pixels */
"N.N.V.N.N.V.V.N.N.N.B.N.0.f.B.B.N.N.B.z.V.V.N.N.N.f.N.N.N.V.V.u.u.z.N.N.N.N.u.z.M.N.N.N.N.N.B.N.B.N.",
"N.N.N.N.N.N.N.V.V.N.N.N.9.f.B.M.B.N.N.N.N.N.N.V.z.u.N.N.N.N.N.g.f.N.N.N.N.N.f.N.x.M.N.V.B.N.N.B.V.N.",
"N.N.N.N.N.N.V.N.N.N.N.g.f.g.N.B.B.N.N.B.N.B.N.N.N.t.g.N.N.N.N.N.z.N.N.z.g.N.g.N.B.B.N.N.N.N.N.B.N.N.",
"N.N.N.V.N.N.V.N.N.N.N.f.t.b.z.N.N.N.B.N.N.B.B.B.N.9.g.N.N.N.N.N.N.B.N.z.N.V.g.N.N.N.N.B.N.N.B.B.B.N.",
"N.N.N.N.N.N.N.V.N.N.V.f.9.g.B.N.N.N.B.N.N.B.N.N.N.7.v.N.N.N.V.g.u.b.g.z.a.u.y.N.N.B.N.N.B.N.N.N.N.N.",
"N.u.f.N.V.N.N.N.N.N.V.D.p.g.N.N.N.N.N.N.N.N.N.N.B.f.N.B.N.N.g.u.f.V.M.B.v.f.t.N.N.N.N.B.N.N.B.B.N.B.",
"N.N.N.N.V.N.N.N.z.N.B.x.0.f.B.N.B.N.B.N.N.B.N.z.M.g.N.B.N.N.g.9.f.g.N.N.v.N.N.N.N.N.N.N.B.N.B.N.B.b.",
"N.V.V.V.N.N.V.N.M.M.B.B.9.f.B.N.B.N.B.N.B.B.B.z.u.u.N.N.N.N.V.g.g.V.N.N.N.N.g.N.B.N.N.N.N.N.N.N.N.s.",
"N.N.V.N.N.N.N.z.N.N.V.z.8.f.N.N.N.N.z.V.B.V.B.M.u.t.b.V.z.N.N.x.N.N.N.N.N.N.g.N.N.N.N.N.N.N.M.B.M.z.",
"B.V.V.V.B.z.B.z.f.N.V.g.4.g.M.N.V.V.N.M.B.V.B.z.t.9.V.N.N.N.B.N.N.N.N.N.V.N.g.N.N.N.B.N.N.N.N.B.V.B.",
"9.f.f.g.B.M.g.7.y.N.g.<. .0.b.f.f.f.z.f.g.8.:.:.,.7.M.g.g.j.g.y.t.f.N.N.N.f.9.M.B.N.N.z.N.N.N.N.B.N.",
">.<.8.t.z.z.b.8.u.N.8.:.&.4.z.u.<.8.f.z.u.,.<.:.%.%.t.f.B.j.t.<.<.9.f.V.K.7.>.V.N.N.N.N.N.B.B.B.N.z.",
"H.K.J.B.z.N.N.B.N.N.N.N.B.N.B.N.f.g.N.V.V.B.H.B.t.=.V.R.J.V.M.N.N.B.N.V.K.g.9.N.B.N.N.N.N.N.B.N.B.N.",
"z.b.N.N.B.N.N.N.B.N.N.N.N.N.N.N.g.N.N.N.N.B.b.M.t.%.g.H.M.M.N.V.V.V.V.N.N.f.t.N.N.N.N.N.N.N.N.N.z.B.",
"z.z.V.V.B.N.B.N.N.B.N.N.N.N.N.N.N.N.B.N.N.N.N.N.u.=.t.B.N.N.N.N.B.N.N.B.V.g.t.z.N.N.B.N.B.M.B.N.N.N.",
"z.B.M.N.N.N.N.N.N.N.N.N.B.N.N.B.B.N.N.N.N.V.N.g.M.0.f.V.N.N.V.N.B.N.N.N.V.N.t.g.B.B.N.N.N.N.N.N.N.N.",
"N.V.N.N.N.N.N.N.M.g.v.M.M.B.M.B.b.B.z.x.V.N.V.B.g.u.M.N.V.N.H.D.M.N.N.N.N.v.8.s.B.M.M.M.z.B.x.z.N.N.",
"N.N.N.N.V.N.N.V.H.H.H.J.H.V.x.z.z.z.Z.V.7.g.f.7.y.j.B.j.f.v.8.<.v.M.B.V.H.H.7.7.j.B.H.V.z.z.M.B.N.N.",
"N.N.N.N.N.V.H.0.:.=.=.=.>.r.V.N.g.H.9.v - | - o I c ( k : v r =.D.v.M.u.:.@.G E W } =.9.H.b.M.N.B.N.",
"N.N.N.g.H.0.{ x F ! ! Q F s ` f.H.<.7 $ 8 7 - g - # J 8 5 X * | r.B.u.0 p Q / / / ~ E x %.z.B.z.N.N.",
"N.N.N.K.:.z Q X.o.X.O.X.F C % s.7.- f J K k Y L P 5 U P 8 - $ X : %.u.: R x E o...X.o.o.A W g.V.N.N.",
"N.N.K.=.l / o.....X.^ w Q S z y.: 4 P y P f G y 5 - Y 8 f g $   G s.0.s l o.e l o.X.X.X.+.Q D f.V.v.",
"x.H.<.a o.o.....X...1 ! o.x E (   j J 4 k 5 y 4 $ f * 4 8 o     . 8.7.l l ^ O.w C ..^ ^ ^ o.Q ` H.g.",
"p.g.D ^ Q A Z F E ; A +.^ A S   4 - k k f 4 - $ - - f U j 4       W %.b Q E O./ % l A e a l R l ,.f.",
"u.' w p s G D p e % / o.E A ~ $ J 4 f L T 7 $ 4 f J Y 8 f 4 4 o   n ` ^ Q x / ^ w ; b  . .$._ t u 7.",
"f._ %.8.g.V.T.:.% l A ~ e A / @ H G -   d J 8 P f &   4 J P P f $ k D X.E w E e V . =.R.H.P.H.f.=.9.",
"f.B.J.V.V.g.H.<.. z b z % l / 2 P 7   m O d T J , M > . f P j 5 G 4 E X.l ; ) { ' 0 %.V.f.g.N.V.H.N.",
"M.M.g.z.B.x.H.<.&.u.s.u.u 1 l * L 4 + 1.N & f 3 N 2.B   6 k 5 8 y 2 l e + J K.D.V.f.9.N.M.M.N.N.M.x.",
"N.N.N.B.N.V.N.V.K.V.N.K.=.t b - 9 #   M , - - 7 , B O . 8 f 8 6 k : _ %.` 7.V.g.g.V.V.N.M.V.N.N.N.N.",
"N.B.N.N.N.B.V.N.N.N.N.V.j.f.g.- - J o   8 f 4 P 7     5 P k 4 - # _ J.K.J.z.z.b.g.g.N.N.M.B.N.N.V.N.",
"N.N.N.N.N.N.B.N.N.N.x.g.t.v.u.X o g G ;.f Y T f I n.-.f k 7 o     v z.y.0.t.8.0.x.B.N.N.s.j.B.z.g.g.",
"N.B.N.V.N.z.N.B.N.M.B.g.9.M.f.o X 7 ` ;.*.8 f *.6.[ b.y 8 - .     I D.f.s.f.j.g.T.R.J.V.r.a.B.z.V.b.",
"N.N.N.V.N.y.g.V.N.N.N.g.t.N.H.(   $ } * *.Y.m.n.  t b.8 k k 8     ;.J.B.B.N.V.V.N.V.V.V.g.f.x.M.V.N.",
"N.N.N.N.z.p.z.N.N.B.g.f.9.g.g.f.u # k 3.6.l.m.w.6.w.' k k f - : :.D.M.x.N.M.N.N.N.N.N.N.q.p.B.M.N.B.",
"N.N.N.B.B.N.N.N.N.N.V.p.8.N.N.V.b.=.h - y 5 # k G = # - 7 u  .y.J.z.B.z.N.B.B.B.B.N.N.V.9.t.B.N.N.N.",
"g.N.V.N.x.V.V.M.N.B.V.f.y.N.N.N.N.J.8.#.&. .` I v I '  .,.v.H.M.z.x.B.B.N.N.B.N.B.N.N.B.u.p.B.N.B.N.",
"7.N.s.:.8.j.y.f.M.g.f.<.<.g.N.N.g.N.5. .f.H.V.N.B.H.Z.D.Z.M.f.z.M.M.z.N.N.B.M.B.V.V.N.N.u.t.z.N.B.N.",
"y.g.f.9.u.j.t.V.K.B.f.7.,.f.A.H.S.V.a.x.I.I.U.U.U.U.U.U.I.I.I.I.L.A.A.B.V.N.z.g.g.N.N.V.u.f.N.b.N.N.",
"D.V.J.R.T.T.H.H.E.Q.~.(.!./.`.`.`.`.].].'.].`.`.`.`.`.`.`.`.`.`.`.`.`.`.).^.!.W.I.H.z.N.z.g.z.N.B.g.",
"M.x.M.g.b.g.M.B.!.`.'.'.'.'.`.`.`.`.).`.`.).`.`.`.`.`.`.`.`.`.`.`.`.`.`.'.'.].`.'./.V.M.s.z.M.V.N.N.",
"N.B.B.N.N.B.V.V.H.W.!.!.!.(.).).`.`.`.`.`.`.'.`.'.'.'.`.`.`.`.`.`.).`.)./.^.!.W.U.A.N.N.g.g.N.V.N.B.",
"V.B.N.N.N.N.N.N.M.N.B.N.B.N.B.H.H.J.c.c.U.U.U.I.I.I.I.I.I.I.I.I.L.H.V.V.x.x.z.M.g.x.N.N.g.g.N.N.N.N.",
"f.g.N.N.N.N.N.N.B.B.B.N.f.N.x.x.M.M.t.9.g.g.M.f.0.f.g.v.g.g.z.g.g.N.N.N.M.M.N.V.N.N.N.N.9.u.V.N.N.N.",
"g.N.B.N.N.N.N.N.M.N.N.v.f.N.N.N.M.B.y.<.f.8.7.=.%.:.4.9.f.B.V.V.N.x.N.N.N.B.N.N.z.g.z.p.:.0.g.N.N.u.",
"V.V.B.N.N.N.N.N.N.N.N.g.t.b.z.z.M.s.y.j.N.f.u.p.f.f.u.f.B.J.T.R.E.V.N.B.V.N.N.V.N.V.V.V.b.N.B.N.N.z.",
"N.N.B.N.V.N.N.V.N.N.V.g.9.g.B.z.g.u.8.p.B.B.B.B.N.V.N.N.B.B.B.M.H.N.N.N.B.N.N.N.N.N.N.V.z.z.B.N.z.B.",
"N.N.N.N.N.N.N.N.V.V.V.g.u.N.B.x.B.K.R.N.N.N.B.N.N.M.N.N.B.N.z.B.N.N.N.N.N.N.N.B.N.N.N.N.g.f.N.B.z.N.",
"N.B.B.N.N.N.V.N.N.N.v.j.0.M.N.M.b.N.g.f.v.v.N.N.N.v.M.B.M.z.B.M.N.B.B.N.N.B.N.N.N.B.N.z.p.f.B.M.B.N.",
"N.V.V.N.N.N.N.B.V.N.V.f.9.g.B.N.N.B.g.z.N.N.N.N.N.N.N.N.N.V.B.B.B.N.N.N.N.N.V.N.N.N.B.B.u.u.B.z.z.B.",
"8.N.N.N.N.N.N.N.g.g.g.7.>.g.N.g.N.N.f.f.N.N.N.N.N.N.N.N.N.N.x.b.M.N.N.N.N.N.N.N.N.N.N.N.9.y.M.b.B.z."
};
