/* XPM */
static char *_4ebb5e846c84a5aa0212e32d152e872UIXgzjhoMJpkOCh8[] = {
/* columns rows colors chars-per-pixel */
"50 50 212 2 ",
"   c #4B0C0B",
".  c #520D0C",
"X  c #5E1107",
"o  c #56110E",
"O  c #5D120B",
"+  c #4D1314",
"@  c #531010",
"#  c #541313",
"$  c #5B1514",
"%  c #5B1919",
"&  c #5C1818",
"*  c #64150E",
"=  c #641613",
"-  c #681615",
";  c #661913",
":  c #6C1B15",
">  c #641D1C",
",  c #6B1E1B",
"<  c #751D14",
"1  c #711E19",
"2  c #67201F",
"3  c #6D221E",
"4  c #772017",
"5  c #7B2217",
"6  c #73221D",
"7  c #7C241C",
"8  c #7D291E",
"9  c #551E25",
"0  c #6E1F23",
"q  c #701F24",
"w  c #58252A",
"e  c #4E2B37",
"r  c #542C34",
"t  c #5E2C32",
"y  c #5C2F3A",
"u  c #54323C",
"i  c #5C333D",
"p  c #622120",
"a  c #6D2422",
"s  c #6B292B",
"d  c #742522",
"f  c #7C2622",
"g  c #762824",
"h  c #7C2A25",
"j  c #792429",
"k  c #742A2A",
"l  c #7D2C2A",
"z  c #7C312D",
"x  c #612B32",
"c  c #6F2E32",
"v  c #732F31",
"b  c #683439",
"n  c #763536",
"m  c #4C3A4C",
"M  c #5C3946",
"N  c #563C48",
"B  c #5A3C4A",
"V  c #673C47",
"C  c #653E4A",
"Z  c #7B3C41",
"A  c #4D465D",
"S  c #4C495E",
"D  c #5A4253",
"F  c #544658",
"G  c #65414C",
"H  c #6C4451",
"J  c #664A5A",
"K  c #734D57",
"L  c #7A535B",
"P  c #544C64",
"I  c #584E66",
"U  c #544D6A",
"Y  c #5C5365",
"T  c #56536C",
"R  c #59536D",
"E  c #5E586F",
"W  c #575570",
"Q  c #5A5672",
"!  c #5D5975",
"~  c #5E5C7A",
"^  c #694E63",
"/  c #67566A",
"(  c #725A6C",
")  c #625672",
"_  c #615B75",
"`  c #6B5B76",
"'  c #625E7C",
"]  c #5E607D",
"[  c #7C626B",
"{  c #64607E",
"}  c #6A627D",
"|  c #6A6879",
" . c #7C6176",
".. c #766B7C",
"X. c #77747C",
"o. c #812317",
"O. c #83261A",
"+. c #892719",
"@. c #84291E",
"#. c #8B2B1E",
"$. c #922D1E",
"%. c #832521",
"&. c #832C23",
"*. c #8C2E23",
"=. c #842E2B",
"-. c #8B2E2C",
";. c #902E23",
":. c #912F2B",
">. c #982F2C",
",. c #863025",
"<. c #8C3125",
"1. c #84302C",
"2. c #8D312B",
"3. c #933126",
"4. c #9A3426",
"5. c #94322B",
"6. c #9B342C",
"7. c #9C382E",
"8. c #832D31",
"9. c #8C2E31",
"0. c #873131",
"q. c #8C3231",
"w. c #923332",
"e. c #9A3433",
"r. c #9D3830",
"t. c #A1362E",
"y. c #A2382D",
"u. c #A03730",
"i. c #83464E",
"p. c #844951",
"a. c #966A78",
"s. c #635F80",
"d. c #5F6281",
"f. c #656282",
"g. c #6A6584",
"h. c #696886",
"j. c #6C6986",
"k. c #6E6B8A",
"l. c #726A84",
"z. c #726D8D",
"x. c #6F708E",
"c. c #747183",
"v. c #7C7985",
"b. c #73708E",
"n. c #79748B",
"m. c #7C7A8A",
"M. c #736F91",
"N. c #757292",
"B. c #797595",
"V. c #767897",
"C. c #7B7A97",
"Z. c #7A7699",
"A. c #76789A",
"S. c #7C7A9A",
"D. c #7C7EA1",
"F. c #826B82",
"G. c #817D86",
"H. c #827F89",
"J. c #887592",
"K. c #807E93",
"L. c #817D9E",
"P. c #837DA2",
"I. c #7E82A4",
"U. c #858585",
"Y. c #85818B",
"T. c #88848B",
"R. c #8C8C8D",
"E. c #8A8793",
"W. c #83819D",
"Q. c #8C8B9B",
"!. c #908F98",
"~. c #949395",
"^. c #93939A",
"/. c #98989E",
"(. c #9D9D9D",
"). c #A0A09F",
"_. c #8583A4",
"`. c #8885A6",
"'. c #8D8AA3",
"]. c #8685A8",
"[. c #8A85AB",
"{. c #8C8BAB",
"}. c #918EAF",
"|. c #9E9EA1",
" X c #9795A9",
".X c #8F8DB2",
"XX c #908EB2",
"oX c #8B90B2",
"OX c #9492B5",
"+X c #9B98B4",
"@X c #9594BB",
"#X c #9997BC",
"$X c #9B99BD",
"%X c #A09FA0",
"&X c #A0A0A0",
"*X c #A2A2A1",
"=X c #A3A3A3",
"-X c #A5A4AB",
";X c #AAAAAB",
":X c #AAAAB2",
">X c #A6A2BF",
",X c #B4B3BB",
"<X c #9E9CC1",
"1X c #A09EC3",
"2X c #A3A1C6",
"3X c #A4A3C9",
"4X c #AAA8CA",
"5X c #ADABCB",
"6X c #B5B4CF",
"7X c #ABAAD2",
"8X c #B0B2D9",
"9X c #BDBAE0",
/* pixels */
"&X&X=X&X=X=X=X=X&X&X&X=XR.|.=X=X:X7X<X#XOX`.] N._.P.P.P.z.l.'.T.~.=X&X&X&X&X~.).).&X=X&X=X&X&X&X=X&X",
"&X&X&X&X&X&X=X=X=X&X&X&XR.!.L.Q.E.3X<X#X.X].| f.P.P._.L.Q ) P.Z.K.^.=X&X&X&X/.(.&X&X&X=X&X&X=X=X=X&X",
"&X&X&X&X&X&X=X=X=X&X&X|.'.P.S.B.Q _.3X#X.X{.N.f.P.P.S.g.A k.S.N.N.k.W.&X(.&X(.&X=X=X&X&X=X&X&X=X&X&X",
"&X&X&X&X=X&X=X&X&X&X&XXX[._.S.Z.k.' $X#X.X'.S.' D.P.j.U S B.N.M.k.k.g.m./.=X(.&X&X&X&X=X&X&X=X=X=X=X",
"=X&X=X&X&X&X&X-X(.=X X.X[.P.Z.B.N.' S.<X.X[.S.k.B.B._ A R B.z.z.k.k.' f.k.Y.R.&X=X&X&X&X&X&X&X&X&X&X",
"&X~./.=X=X&X;X5X2X+X| S.{.L.L.B.M.k.' XXOX`.].g.W W U A g.N.k.k.h.f.! h.h.f.{ c.&X=X&X&X&X=X=X=X&X=X",
").).&X=X&X(.;X5X2X<X'.{ B.`.S.B.z.k.' N.@X_.^ x w 9 e F A.z.g.h.h.! ! f.f.f.` T X.(.=X&X&X&X=X&X=X&X",
"&X=X=X=X&X%X~. X3X$X@X{._ B.L.B.M.k.g.s.| y $ - $ $ @ 9 B h.h.f.~ ! ' ' ' ' ' T ! n.~.&X&X&X&X&X)./.",
"&X=X=X=X&XW.n.{ OX$XOXOXI.~ C.B.z.k.h.B + . > > $ $ & $   w ! d.Q ' ' ~ ' s.! j.B.l.g.c./.=X&X=X&X).",
"=X=X=X=XQ.z.N.{ A.<XOX{.'.x.h.B.M.s.M @ # % q q 0 > $ $ +   + B T Q _ s.s.W k.[.P.z...' l.&X&X&X=X=X",
"R.(.(./.N.k.g.{ { OX@X{.].I.! k.) 9 o $ 0 > j d > a , & + +     u P W ! Q T ].[.L.Z.h.} _ T.=X&X&X).",
"X.X.R.v.! ! ~ ~ ! S.$X}.`.{ P u @ $ > 0 % 0 j d 0 > 3 a # # +     9 F W P A..X_.P.L.N.} _ ! (.=X&X).",
";X;X,X>XW.| ! ! Q { oXI.Y u 9 O 0 > , , 3 d 1.0.l g d a % & $ # o . + w D k.D.I.N.g.' ! R P v.&X&X=X",
").).5X4X3X$X{._.S.k.F r % * > 2 0 > d j h k 0.0.z l z l 0 > $ $ & & o O @ w N ~ l.B.[.{.L.B.n.(.&X&X",
").).5X>X$X@XXX]._.N.w X 2 d d d j h 8.h h h 1.q.z h z 1.3 g : > ; a > > & $ . a.8X2X<X@X].B.M.^.=X=X",
").).5X5X2X$XOX{.`.N.t 3 z 1.z l 0.j 8.h k h q.1.l h 1.z a d 3 d g 3 > a a a . F.8X<X#XOXXXJ.z.^.=X&X",
"&X&X-X{._.L.S.B.B.h.x , l =.l l 8.=.8.h l h 0.0.l h z 1.d g 6 g h l a 3 3 d o ( 7X<X#XOX{.W.z.!.=X).",
"&X).|.V.n.z.h.g.{ { b , z 1.=.l 9.8.=.k k h =.l l h l 0.d d 6 g l l =.l 6 a o ( 8X3X<X@X{._.n.!.=X).",
"&X=X X_.I.S.S.S.S.I.H ; l =.=.=.-.-.=.j l h 0.=.l h l 1.d g d h l h =.0.l d o J {.W.V.b.j.' Q ^.=X).",
"&X=XQ.S.V.V.V.V.V.S.H ; l 1.1.=.9.=.l h h h 8.=.=.h l q.d g d h h l 8.1.1.h 2 { h.' ! ! ! R I G.=X).",
"&X=XE.A.V.S.S.S.V.D.H ; h 1.1.=.9.8.=.j h h -.=.l f =.q.d h 6 h h l q.=.=.=.s j.h.' f.' ~ Q U H.=X).",
"&X=X'.A.S.S.S.S.S.S.H ; z <.,.1.9.-.l l h h 9.&.l f =.q.h g d h h l 0.=.=.=.s g.f.~ ' ' ' Q U v.=X).",
"=X=X^.N.N.N.V.V.V.A.C * h &.1.=.9.9.h f h h 1.=.&.f =.q.h g h h h =.q.q.=.=.a ) ~ ! ~ ~ ! W U H.=X).",
"~.(.-X+X_.S.V.n.x.h.t * &.&.=.1.-.=.=.f &.h 2.&.f f =.q.d f f =.&.=.q.1.=.1.1 J V.N.N.N.k.! Q !.=X~.",
"R.=X6X9X5X$X+X}._.I.V * 8 @.1.*.=.=.-.f &.h =.&.f 7 =.-.f h h &.&.=.q.q.=.1.:  .$X`.L.S.A.} _ (.).R.",
";X=X,X5X$X$XOX{.]._.G X 8 &.,.,.=.&.=.&.h h -.h f 7 =.2.d h &.-.h &.w.q.=.w.3  .OX_.L.B.b.} ) /.=X).",
").(.;X5X1X$XOX{._.I.G X 8 &.*.,.%.%.=.f &.h <.&.1 7 &.2.d 8 &.9.&.&.w.w.-.w.:  .<XP.L.L.N.g.! R.=X).",
").).:X7X3X<X@XXX].I.G X 6 &.1.1.=.&.&.f &.h &.@.7 7 &.2.6 h &.9.&.=.w.q.2.q.1 ^ P.L.B.N.z._ R R.=X=X",
").&X-X+X{._._.S.S.I.b X 8 &.L L K z &.h @.&.,.h 7 8 &.2., f &.9.&.*.w.w.w.2.6 / D.B.N.M.g.R I ~.=X).",
").&X(._ P W T T T ! x O 8 @.K [ K k &.@.&.=.<.&.7 8 &.1.6 &.-.:.=.*.q.e.w.-.f J.<XP.P.S.N.} _ T.;X=X",
").=X^.' s.f.s.' f.~ B O h *.C N G k &.@.&.&.<.&.7 O.&.<.0 &.:.:.-.&.w.e.w.:.j F.XXP.S.Z.N.} E T.).(.",
").=X|.f.~ ~ s.' ' ] B O &.z u m e n &.&.@.2.2.&.7 &.&.<.1 =.9.:.-.=.w.e.5.e.%. .OXP.L.B.b.` R U.;X).",
").&X&Xj.~ { ' f.~ ~ B * &.z t t w b 8 @.&.5.2.,.8 @.&.,.1 *.-.:.2.<.e.e.2.e.&.a.<XI._.S.A.g.) H.;X).",
"(.&X=Xc.! ' ' ~ ~ ~ B * <.<.c s c k 7 7 h 5.5.,.8 @.,.,.6 -.:.-.:.2.5.e.5.5.&.J h.~ ' ! Q I F !.=X).",
"|.&X=Xm.~ { ' { ' ~ i * <.3.2.a d 5 5 7 7 5.5.,.@.@.,.#.6 -.:.:.5.2.5.e.2.e.=.I W W W W Q P I ~.=X=X",
"/.&X|.`.I.V.V.V.V.N.G * <.5.e.@.@.4 4 7 O.5.w.,.@.@.<.<.6 -.w.-.2.5.5.5.2.6.v f.s.s.s.s.f._ I T.=X).",
"I.&X^.I.C.V.V.S.S.V.C * <.5.7.&.8 4 4 7 8 5.e.<.@.,.*.*.6 3.:.*.5.2.5.5.5.5.k ! s.' ' ' ~ ! U Y.;X).",
"R.&X^.C.V.S.S.S.S.V.C * <.5.e.*.&.4 < 5 8 5.e.*.@.<.*.<.8 <.:.-.:.5.5.5.-.4.k ' s.' ' ' ' ' P X.=X).",
"&X;X).m.V.S.S.S.V.V.V * *.7.r.3.@.4 4 5 @.5.6.*.#.<.*.<.8 :.:.*.:.;.5.<.5.5.d ) d.' ' ' ' ' U ..=X%X",
").).(.I.S.S.S.S.S.V.V = <.5.7.3.@.4 1 5 @.e.7.3.<.<.*.#.O.-.:.*.5.*.5.3.4.-.- D ! Q ! ! ! Q E /.=X%X",
"%X=X%XS.N.M.k.k.b.x.V * <.t.7.;.@.5 < 5 @.5.u.>.<.3.<.#.%.:.-.;.5.*.3.<.4.;.p.J.N.N.z.z.h.g._ v.=X).",
"=X=X=XQ.g.j.j.g.{ ! t ; 3.e.t.5.#.5 4 5 @.6.e.4.3.4.<.<.&.>.;.*.5.<.3.3.5.+.a.3X[.[.L.Z.N.z._ E %X).",
"(.%X&X X.XP.L.Z.z.{ M * 5.u.7.5.#.5 < < #.6.e.7.6.5.<.#.*.>.:.*.6.*.3.<.3.+.i.$X].P.S.B.b.k.) ) %X).",
"(.%X=X+X[.P.Z.N.l.' M ; 5.u.6.4.*.o.5 o.@.7.t.7.r.7.3.*.%.>.;.*.>.#.3.3.<.#.K @X]._.L.Z.B.k.~ / ).~.",
"=X&X=X X[._.L.B.g.' b * 5.u.t.5.*.o.o.O.@.6.t.6.7.6.3.*.*.>.*.*.5.@.;.#.5.#.Z OX[.P.S.N.N.h._ | =X%X",
"%X&X=X X[.P.Z.z.} ! t * 5.t.t.;.*.o.< +.@.4.u.t.7.y.4.*.#.>.*.#.5.@.#.#.;.$.d ` l.g.' _ S m Y (.%X=X",
"%X=X=X^.j.f.' ! T R t * 6.6.4.;.*.o.o.O.#.4.t.t.t.6.4.*.#.>.;.#.3.@.#.+.*.$.Z z.z.N.b.j.` ) | ).).%X",
"%X&X=XK.s.' ! R R Q x : t.4.4.$.*.O.o.#.*.4.t.t.t.t.4.*.#.6.#.;.4.O.#.O.#.*.c Z.N.z.g.' ` _ c.).=X%X",
"&X=X=Xn.W Q R R U ! i < t.4.4.+.$.+.+.#.*.4.t.t.t.t.4.#.#.4.;.;.5.7 #.+.#.$.g z.j.} ` ' ' R c.=X%X%X",
"U.%X=XX.U R U W R ! M f y.;.4.o.#.@.@.#.*.4.y.t.t.t.4.#.@.4.*.;.4.5 +.o.#.$.3 ` ` _ ' _ _ U c.=X%X%X"
};
