/* XPM */
static char *_8f2c996743d4118bcd5a572eff0b0d2Ic5yH8ZQzaR3bH0l[] = {
/* columns rows colors chars-per-pixel */
"50 50 34 1 ",
"  c #3A3A3A",
". c #3E3E3E",
"X c #414141",
"o c #4C4C4C",
"O c #535353",
"+ c gray33",
"@ c #5A5A5A",
"# c gray36",
"$ c gray38",
"% c gray40",
"& c DimGray",
"* c #6F6F6F",
"= c gray45",
"- c #767676",
"; c gray48",
": c gray50",
"> c #818181",
", c #868686",
"< c #898989",
"1 c gray55",
"2 c #909090",
"3 c #959595",
"4 c #989898",
"5 c #9F9F9F",
"6 c gray63",
"7 c #A4A4A4",
"8 c gray66",
"9 c gray68",
"0 c gray70",
"q c gray71",
"w c gray73",
"e c gray75",
"r c gray76",
"t c gray82",
/* pixels */
"66677666675666666666666743766666666645646666666666",
"6667666672<766666666666743666666665667656766666666",
"6566667672>666665666666743666675277773427666666676",
"67666677783566665666666755667645398880826667666666",
"76666666751666666666666666666641276656666666666666",
"76676666761666766667676326766676266666656666666666",
"7666666675;576666766777536666666566666646666666666",
"6666666665;5666666676764:5666666566666666666666666",
"7666416682*7667777779626<6776677565677646566666766",
"4666;;642@ 145124442*O###324533,=44544<>7566656667",
",565,:4,-===12=*:282=1;=+:3806:-=;440e>=9566656666",
"776678678888777777898988-<tq8988807780916665666666",
"666666666555566666656567&*0556566667654<7666666666",
"667666666666666566666657==766666677666527656666666",
"7666666666665666666666673<766766766677715666666666",
"666666666666666666666666546676666666767>4766666666",
"666666666676766666666667156667666667667;1666666666",
"666666666666666666666666667766656667667;2657666666",
"666676766766666666766667237666666666667*;553565656",
"7666666666667666666666672,7666666666676125,2666666",
"667666666666666666667667327666766665673>8797766666",
"666666666656666766666667,5766666674<764-3777677666",
"666666666666665567666667<4766666666266418677767666",
"666756676666656664676775&,776677872>662-7676665555",
"866,*=;,,446555:#o$-=--#.+=,574;,-+%16:X;467<>6777",
"wq9ewweeeq,0657076444566qq657776656779076777079qwe",
"5566777782,7566676777672;6766666676666576666566555",
"67676676721756666666665934766766666766666666666766",
"77767766732766667667666666666666666666666666666666",
"66677676664766666666666666666666666665666566666766",
"66666666666666666776666667666667666667567656666666",
"666776666616666454366566>:3666666565324,,555555665",
"6766676674;5666565356464123554554464344239q865>465",
"67<5776673<856658977666677666666666766778787785566",
"7417666675,766666446666667666666666665466666671466",
"6567666673:766657>4767666676676666666667666668>476",
"76766666741856657;3766666666666666666666766657<466",
"47777666831766667=-7667667666776666666666666662476",
"+<4,34441#-656556@$6666666666666666666666666671476",
"45837wq871-667765<96666666666666666667666766672566",
"000089qqr94776769856666666666666666666666666674666",
"555667,%543766666<47666666666666676676667666664666",
"567776qw56<766666456566656666666666766666666674676",
"66667760767666666,56666656666666666665666666664666",
"65656666654766667466777877666676766667666766673566",
"66656666653756657=,7443&:346666666666666666664*566",
"66666766652766668<:5:-=&=-;<578886676766765561*456",
"6566666673<76653318866797766890qr95766667666690876",
"6666666675176666,>55566565667665586666666566663566",
"6667667765176678r956666666656667666667666666664666"
};
