/* XPM */
static char *_7ac40ea03e241c491dfc1904ff033fb9VLvBREjLqcx1pTU[] = {
/* columns rows colors chars-per-pixel */
"50 50 232 2 ",
"   c #3D2B3B",
".  c #4E2B35",
"X  c #64342F",
"o  c #52354C",
"O  c #5A3B59",
"+  c #69385C",
"@  c #723B52",
"#  c #713D6C",
"$  c #753C73",
"%  c #5A4E55",
"&  c #575757",
"*  c #6A464C",
"=  c #774943",
"-  c #684658",
";  c #77475D",
":  c #7E445E",
">  c #745456",
",  c #694363",
"<  c #7A4863",
"1  c #6C5A6A",
"2  c #715B6B",
"3  c #755374",
"4  c #68666B",
"5  c #6E6E6E",
"6  c #786369",
"7  c #736473",
"8  c #7A6776",
"9  c #756C76",
"0  c #6E7070",
"q  c #737373",
"w  c #777677",
"e  c #7D717B",
"r  c #7B7B7B",
"t  c #9A593A",
"y  c #A5633F",
"u  c #8F3F74",
"i  c #87574E",
"p  c #975D46",
"a  c #854F53",
"s  c #965857",
"d  c #A4595B",
"f  c #986756",
"g  c #A66948",
"h  c #AC724A",
"j  c #B5784A",
"k  c #AC7059",
"l  c #844A62",
"z  c #874A69",
"x  c #974A67",
"c  c #885368",
"v  c #915769",
"b  c #915E6C",
"n  c #864777",
"m  c #984A77",
"M  c #8D517C",
"N  c #9A5978",
"B  c #A64E6C",
"V  c #A64D76",
"C  c #A8577B",
"Z  c #B3547A",
"A  c #B65478",
"S  c #BC567A",
"D  c #BE597B",
"F  c #86686A",
"G  c #956A67",
"H  c #99756A",
"J  c #846B76",
"K  c #9F6078",
"L  c #887A7B",
"P  c #947C76",
"I  c #A87968",
"U  c #B57B6A",
"Y  c #A86676",
"T  c #BA6579",
"R  c #AB7772",
"E  c #C17F49",
"W  c #C1567B",
"Q  c #C35C7D",
"!  c #C7657E",
"~  c #C2717E",
"^  c #7F807F",
"/  c #BA8452",
"(  c #BA8851",
")  c #99867E",
"_  c #B6886B",
"`  c #A88679",
"'  c #B98E73",
"]  c #AE927D",
"[  c #BB927B",
"{  c #C5894E",
"}  c #D4964E",
"|  c #C99253",
" . c #D59853",
".. c #DB9D53",
"X. c #DEA255",
"o. c #E5A955",
"O. c #EAB65C",
"+. c #F1B558",
"@. c #F2BB5C",
"#. c #C18E76",
"$. c #C5947B",
"%. c #CFA464",
"&. c #E2BC66",
"*. c #ECC466",
"=. c #F7CA65",
"-. c #F4CB66",
";. c #F9D46B",
":. c #FEE474",
">. c #FFEB7A",
",. c #645986",
"<. c #7F7187",
"1. c #865C84",
"2. c #955882",
"3. c #A05F83",
"4. c #B85A81",
"5. c #876989",
"6. c #966485",
"7. c #837C82",
"8. c #88778C",
"9. c #947889",
"0. c #8D6E95",
"q. c #8B7595",
"w. c #8B7C92",
"e. c #957A98",
"r. c #A96682",
"t. c #B86683",
"y. c #B37990",
"u. c #987CA2",
"i. c #C55B80",
"p. c #C26484",
"a. c #CC6381",
"s. c #CC6A84",
"d. c #D06182",
"f. c #D26C84",
"g. c #CF7186",
"h. c #C87189",
"j. c #D27286",
"k. c #D77589",
"l. c #D67A8B",
"z. c #DB7B8B",
"x. c #CB7B92",
"c. c #E27D8D",
"v. c #7E8184",
"b. c #848484",
"n. c #868588",
"m. c #8A828C",
"M. c #8C8C8C",
"N. c #968787",
"B. c #8C8391",
"V. c #8E8B91",
"C. c #928E94",
"Z. c #968998",
"A. c #949290",
"S. c #949494",
"D. c #9A9595",
"F. c #969599",
"G. c #99969B",
"H. c #9C9C9C",
"J. c #B08E88",
"K. c #B28F8D",
"L. c #A29794",
"P. c #A09F9F",
"I. c #9FA09F",
"U. c #A0A09F",
"Y. c #9885A1",
"T. c #9B84A5",
"R. c #9E95A2",
"E. c #9D9DA0",
"W. c #9E94B2",
"Q. c #A38CAC",
"!. c #A19EA2",
"~. c #A596AB",
"^. c #B599A3",
"/. c #AA98B3",
"(. c #B39ABC",
"). c #9EA2A1",
"_. c #9FA5AA",
"`. c #A2A2A2",
"'. c #A5A9A6",
"]. c #A4A5A8",
"[. c #A9A6A9",
"{. c #A6AAA9",
"}. c #AAAAAA",
"|. c #B0ACAE",
" X c #AEA7B2",
".X c #B3A7B8",
"XX c #B3B4B4",
"oX c #B6B4B9",
"OX c #BBBBBB",
"+X c #DD828E",
"@X c #C99D88",
"#X c #DB8292",
"$X c #E1848E",
"%X c #E9888F",
"&X c #E38690",
"*X c #EB8792",
"=X c #E58992",
"-X c #EB8C92",
";X c #E59194",
":X c #CCA18B",
">X c #D7A688",
",X c #D1A993",
"<X c #D6AC93",
"1X c #E7B797",
"2X c #E8B395",
"3X c #D59BA9",
"4X c #F19FA3",
"5X c #D5B1A7",
"6X c #E9B5A7",
"7X c #DFC1B3",
"8X c #E9C4A8",
"9X c #F6CDAE",
"0X c #EBCDB6",
"qX c #F8CFB6",
"wX c #F8D5BB",
"eX c #8382D1",
"rX c #BAA6C4",
"tX c #B9A8D2",
"yX c #C4AECE",
"uX c #CAB6D6",
"iX c #D2BADB",
"pX c #D7BFE2",
"aX c #C1C2C1",
"sX c #F9D7C4",
"dX c #FDDCC4",
"fX c #FFE2C6",
"gX c #FFE5CC",
"hX c #FFE8CB",
"jX c #DAC5E4",
"kX c #E3D2EC",
"lX c #EBE9EE",
"zX c #FFFCFC",
/* pixels */
"`.`.`.`.`.`.`.`.U.`.P.`.`.U.U.`.`.U.`.`.`.U.U.`.H.F.).] ] ) A.J.f.t.E.`.H.!.`.H.U.`.`.`.`.`.`.`.`.`.",
"`.`.`.`.`.`.U.!.`.S.n.'.`.`.`.`.`.`.`.P.U.U.].`.A.) ' &.-.&./ ! &XQ 5.`.`.`.`.`.`.`.U.`.`.P.H.`.`.`.",
"`.H.`.`.`.`.].U.`.S.b.`.P.P.!.`.P.H.`.!.U.].L.] %.O.>.>.>.;.O.h s V 2.`.`.D.H.M.`.`.`.`.`.`.`.`.`.`.",
"`.`.`.`.`.`.`.`.`.}.S.H.`.`.U.`.`.U.`.U.U.D.%.-.>.>.>.:.>.;.+.+.{ g N.}.}.|.].M.`.P.`.`.`.U.`.`.`.`.",
"`.`.`.`.`.U.`.`.`.U.M.`.`.`.`.`.`.`.).`.`._ +.+.;.>.:.>.;.@.-.+.+.o.I H.U.U.I.).`.`.`.H.`.`.H.`.`.U.",
"`.`.U.`.`.`.U.U.`.`.M.`.`.U.`.`.`.`.I.].J.X.+.+.O.o.;.;.O.:.-.@.;.-.} P '.U.).H.U.`.`.`.P.`.`.`.`.!.",
"`.`.U.`.U.].`.`.].P.r H.`.P.`.`.`.`.`.].] o.@.@...o.-. .*.O.-.;.*.;.} P '.U.I.H.`.`.P.`.`.`.P.U.P.`.",
"`.`.`.`.`.H.`.`.`.P.r H.`.`.U.U.`.`.U.`.] } X...o.;...O.j h :.*.+...} H ).`.I.).`.`.P.`.`.`.).!.`.`.",
"].`.`.`.H.M.U.`.}.S.0 `.U.`.].'.'.`.)._.] E { o. .h h j f j O. ...j o...P '.).H.`.`.`.`.H.`.`.`.`.`.",
"D.`.I.`.w r U.D.M.&   M.H.D.M.M.F.F.F.) j X.} h s ' <Xk a g | { } g E o.f D.M.^ ].H.I.`.`.H.`.`.U.`.",
"n.H.`.H.b.^ D.b.q q q q M.S.0 5 ^ S.[.f p p p a #.2X>XX - i g h { g j y H yX) 0 {.P.H.`.!.I.`.`.`.`.",
"[.`.`.`.[.{.`.].}.}.}.{.'.`.[.].'.`.}.N.p y G G.8X9X8X,.W.2Xg p p g h I `.XX{.M.`.`.`.`.U.`.U.`.!.`.",
"U.`.I.`.I.`.`.U.).).I.I.I.U.`.`.I.I.H.`.H t I tXsXfXhXeXtXdXU g / / y P `.P.H.M.`.`.`.`.`.`.`.`.U.U.",
"`.`.`.`.I.`.`.U.U.U.`.U.`.`.`.H.`.`.`.`.D.p d 4XwXfXfX;X+X6X_ y  .{ p p D.].H.M.`.`.U.`.`.H.`.`.`.`.",
"`.`.U.`.`.`.`.`.U.U.`.`.I.I.`.`.`.).`.`.'.S.f 2X8X:XwXwXwX:Xa ( ;.k N.L.U.`.`.M.H.`.`.`.U.`.`.`.`.`.",
"`.`.`.`.`.P.E.`.`.`.`.`.`.`.`.I.`.`.`.`.U.].H.) [ @X5X8X$.= ( :.( N.`.`.`.`.`.b.H.`.U.`.`.I.!.I.`.I.",
"P.`.`.`.!.`.!.`.`.`.`.`.`.`.`.).`.`.P.!.).H.) J a U Y d a j -.j F ).H.`.`.`.`.r M.`.`.U.`.`.`.`.`.`.",
"`.`.`.U.`.`.].A.H.`.U.`.`.).`.`.).P.`.`.S.J.$.$.Y #X-X4.s X.j X ) |.{.`.`.`.'.w M.`.`.{.`.`.U.`.`.`.",
"`.P.U.`.U.].M.] ` ).`.U.`.`.H.`.`.].H.H R 0XhXfXF n h.D d } p $.` F b.`.`.`.].0 v.H.P P H.`.`.U.H.`.",
"`.`.U.U.U.L.f wX@XN.`.'.'.`._.E.F.w.2.R wXhXsX1Xc B A D d j h 2X1XU < 1.Z.H.I.M.) f R @XL '.U.U.`.`.",
"`.`.`.`.H.J.9XdX,Xf J B.B.8.5.r.t.t.k.x.6X<Xk > B Q D ! j.k p i [ 1XY A V 2.5.8 8 $.8X<XF '.U.`.`.`.",
"`.`.`.`.H.R qX1X@X:X9.G.W.y.s.&X-X=X$Xc.x * @ x k.z.z.+X=X+X! + . s r.k.z.l.h.(.tXJ $.G H.'.`.`.U.`.",
"`.`.`.P.'.H $.$.:X9X^.].}.3X*X=X$X=Xp.z b.1.V p.=X&X=X=X=X-X*Xx % # s.l.=X=X*X3XkX XH f 6 H.U.`.`.`.",
"!.P.`.`.'.N.f <X1X:XF .X`.K.$X=X=Xf.z 7.}.8.u Z l.-X=X+Xh.h.C J ).c S i.l.&X&X;XzXlXF U = H.U.H.H.H.",
"].`.`.n.5 q > I ' i + ~.).y.! f.a.x % w q w m A C r.4.C m # 1 w n.4 + D Q l.c.#XzXlX* F w n.U.].].].",
"OXXXXXOXOXOXOX) * . o R.].J.D V l n.H.D.H.8.C ! A Z Z Z m 2 {.H.P.`.S.c A Q i.i.lXlX5 |.XX`.|.XXOXOX",
"H.U.`.`.`.'.`.XX7   O ~._.e.u # 7.'.[.'.e.C $Xl.Q ! S 3.B 2 `.`.`.`.].C.< V A 4.jXiX7 `.H.U.I.`.U.P.",
"`.`.`.`.`.`.`.`.1   O .XoXQ.+ 7.[.!.`.B.V z.=X$X&X$Xt.z.! 7 {.`.U.U.P.{.b.O 3 0.iXT.7.`.`.U.`.`.U.`.",
"'.`.`.`.`.`.`.].M.o 5.uXjXe.e {.U.).Z.M g.k.z.=X&Xg.z.=X=XY n.{.`.`.!.`.P.1 0.uXjX2 S.].`.`.!.`.`.`.",
"`.`.`.`.].`.`.`.`.7 (.iX(.7 H.`.`.L.5XsXy.h.z.=X&X&X=X&X-XT O L [.`.`.I.'.7.8.iXQ.7 P.`.`.`.U.`.`.U.",
"`.`.`.`.`.`.`.U.`.H.e 8 7 S.`.'.N.J.hXdX5XV =X&X&X&X&X=XT J.6X` L `.U.U.!.'.m.8 7.U.P.!.`.`.`.`.U.`.",
"`.U.`.`.`.`.`.`.`.!.M.H.`.`.).H.H 1XgXdX9Xr.l.=X&X&X=X-XF 0XhXfX@XL '.H.S.C.H.b.n.P.P.P.`.H.H.P.`.U.",
"`.`.`.`.`.`.`.`.].H.r I.U.`.`.S.R fXfXwX1Xr.s.k.=X&X&Xz.c 0XfXfXsXY.G.F.F.H.S.S.S.}.oX}.U.H.b.H.H.U.",
"`.`.M.H.`.`.`.`.U.S.n.[.U.U.!.G.e.7XfX9X1Xr.s.W k.=X*Xl.; 6XfXfX5XE.~./.!.`.`.].[.].{.`.`.}.H.H.`.`.",
"`.H.M.`.`.`.`.`.`.I.n.`.`.`.R./. XR. X1X_ c g.S D j.k.Q l >X9X6XD.I.`.].R.G.H.`.U.U.U.U.H.).M.H.`.`.",
"`.U.`.`.`.`.U.U.`.D.^ '.I.U.~..X|.L D.~.> ; g.4.D S D Q ; _ 1XK./.[.H.`.!.G.G.`.U.`.`.`.)._.) D.`.`.",
"`.`.`.`.`.`.`.`.`.F.M.[.U.H.R.`.'.q !.rX3 n g.D D Q D Q < 6 G 5.yXuX.XE.).I.~.~.).`.`.`.).].n.D.`.`.",
"D.].`.[.`.`.`.`.{.S.M.{.`.~.!.`.).<..XQ.$ n g.S D D D D < H.S.C.w.Q.yXuX X].].R.m.`.`.U.).].M.H.`.`.",
"& M.F.n.F.H.H.D.M.& q ).B./.`.H.{.yXu.$ $ n g.D D Q S a.c S.'.`.`.C.w.(.uXiX}.F.8.].`.`.I.'.M.D.`.`.",
"H.D.'.S.'.XXXX`.].S.7 e.<.[.`. XT.<.+ n $ n g.D D D S f.b S.`.`.`.H.w.e.e.(.rXZ.H.`.U.`.`.`.S.H.`.U.",
"XXXXXXXX}.|.XXoXaX'.8.yX~.`.'.R.C.n.; m $ n +XD D Q S f.G S.].U.`.w.(.pXQ.u.w.H.`.U.`.`.U.`.H.H.`.`.",
"H.U.H.U.).'.b.4 D.w.!.}.Q.B.m.B.}.v.; m m m +Xj.D D 4.f.b S.`.`.'.w.yXuXT.8.H.`.`.`.I.`.`.`.H.P.`.`.",
"U.`.`.[.U.U.oXOXS.T.kX(.q.<.Z.`.'.S.< A D m #X+XS Q l.l.b C.`.U.'.B.rX(.<.G.].U.`.U.U.`.`.`.H.H.`.`.",
"`.U.`.U.'.`.`.XXZ.Y.rXT.8.I.'.`.U.<.; W S m #X=Xl.z.=Xz.b C.].`.H.8.T.Z.w.I.U.`.`.`.`.`.`.`.H.H.`.`.",
"`.U.U.H.`.E.`.`.8.u.Y.<.H.`.`.`.'.M.< d.f.m z.=X$X&X+Xa.l F.`.'.H.q.T.<.D.'.).`.U.`.`.`.H.`.S.H.`.`.",
"U.`.`.`.!.`.`.H.w.T.q.C.`.`.`.I.{.5 o v v M #X%Xf.z.$X! < S.`.`.e 5.W.u.m.U.[.`.`.`.`.`.`.H.5 H.U.`.",
"`.`.`.`.`.).).8.q.W.8.V.].`.`.`.[.M.w b.4 3 &X-Xt.l.-Xd.l H.}.}.1 m 0.0.n 7 v.n.].U.H.`.`.M.q H.H.`.",
"`.H.`.U.`.).E.M 2.1.1., S.`.H.S.D.M.}.}.'.6.k.*X3.N K : - '.XXoX2 s.4.V Q T Y K L ].).`.`.|.}.[.`.`.",
"`.`.`.`.`.`.H.2.%Xa.S V + H.`.`.b.b.).).).8.2.6.6.B.V.M.V.`.`.H.J Y B x B T ~ Y e `.U.`.U.U.S.H.`.`.",
"`.`.`.`.E.`.`.9.v c : l 8 I.`.[.7XXXF.).).).)._.`.`.'.].`.`.`.`.P.8 9 9 9 9 7 e U.U.U.`.`.`.H.`.`.U."
};
