/* XPM */
static char *aa856c604cc64b53a0e5c94bd9258dc0yB5dwDh63sqwNNiu[] = {
/* columns rows colors chars-per-pixel */
"50 50 241 2 ",
"   c #3C2F3A",
".  c #4A2A38",
"X  c #65342F",
"o  c #51344B",
"O  c #593A58",
"+  c #683757",
"@  c #733E69",
"#  c #763D74",
"$  c #50504F",
"%  c #584855",
"&  c #5A5658",
"*  c #69454C",
"=  c #684758",
"-  c #7D425D",
";  c #725251",
":  c #5E605F",
">  c #60605F",
",  c #5F5364",
"<  c #6A4364",
"1  c #7A4A64",
"2  c #6E596D",
"3  c #755A68",
"4  c #775776",
"5  c #6C646A",
"6  c #6E6D6E",
"7  c #78656A",
"8  c #6F6373",
"9  c #746474",
"0  c #786B77",
"q  c #727272",
"w  c #79767A",
"e  c #7B7B7B",
"r  c #9C5B37",
"t  c #A5623F",
"y  c #903F74",
"u  c #804D42",
"i  c #87554C",
"p  c #985D46",
"a  c #82465B",
"s  c #835955",
"d  c #965856",
"f  c #A4595B",
"g  c #9B6348",
"h  c #8F665B",
"j  c #976655",
"k  c #A56846",
"l  c #AE7147",
"z  c #AD714A",
"x  c #B67A4A",
"c  c #AA6F59",
"v  c #854A66",
"b  c #984A67",
"n  c #875266",
"m  c #925D6B",
"M  c #9D5E6E",
"N  c #854674",
"B  c #854679",
"V  c #994B77",
"C  c #8D527C",
"Z  c #995979",
"A  c #A54D6E",
"S  c #A4506B",
"D  c #A84D77",
"F  c #A9577B",
"G  c #B45479",
"H  c #B55579",
"J  c #BB567A",
"K  c #BE597B",
"L  c #85686B",
"P  c #946B65",
"I  c #96766B",
"U  c #836D76",
"Y  c #926873",
"T  c #86797B",
"R  c #967C74",
"E  c #A57768",
"W  c #B67B69",
"Q  c #A5657A",
"!  c #B56677",
"~  c #AC7772",
"^  c #C17F4A",
"/  c #C1567A",
"(  c #C35C7D",
")  c #C5657E",
"_  c #C2717E",
"`  c #B98452",
"'  c #BB8C54",
"]  c #96827D",
"[  c #B58668",
"{  c #AB8575",
"}  c #B98A76",
"|  c #AD917D",
" . c #B99772",
".. c #C68A4E",
"X. c #D5954D",
"o. c #CD9050",
"O. c #D59853",
"+. c #DA9C53",
"@. c #DEA456",
"#. c #E6A955",
"$. c #EAB55B",
"%. c #F1B558",
"&. c #F2BB5C",
"*. c #C28F76",
"=. c #C4937B",
"-. c #D4AA64",
";. c #E3BE67",
":. c #ECC466",
">. c #F7CA65",
",. c #F4CB66",
"<. c #F8D36A",
"1. c #FAD66D",
"2. c #FCDF71",
"3. c #FEE575",
"4. c #FFEC7A",
"5. c #665B86",
"6. c #7E6D86",
"7. c #7D7484",
"8. c #875D84",
"9. c #925881",
"0. c #A55E82",
"q. c #B95A81",
"w. c #886A89",
"e. c #966486",
"r. c #837B83",
"t. c #85758C",
"y. c #867B8D",
"u. c #89788A",
"i. c #957889",
"p. c #8B6C92",
"a. c #8B7493",
"s. c #8C7B94",
"d. c #957995",
"f. c #927D9C",
"g. c #A96683",
"h. c #B76683",
"j. c #B3788E",
"k. c #997EA2",
"l. c #A87FAC",
"z. c #C55B80",
"x. c #C66785",
"c. c #CC6381",
"v. c #CC6B84",
"b. c #D16384",
"n. c #D36C84",
"m. c #CE7186",
"M. c #C87289",
"N. c #D37286",
"B. c #D77589",
"V. c #D67A8B",
"C. c #DC7C8B",
"Z. c #CB7B92",
"A. c #E27E8D",
"S. c #848484",
"D. c #84868A",
"F. c #8A838C",
"G. c #8B8B8C",
"H. c #968987",
"J. c #8C8391",
"K. c #8D8D92",
"L. c #958897",
"P. c #928C94",
"I. c #8D9192",
"U. c #949494",
"Y. c #9B9493",
"T. c #979698",
"R. c #99959C",
"E. c #979B9B",
"W. c #9C9C9D",
"Q. c #AB8D86",
"!. c #AA9281",
"~. c #A29895",
"^. c #A09F9F",
"/. c #B29092",
"(. c #9DA19E",
"). c #A0A09F",
"_. c #9984A3",
"`. c #9D93A2",
"'. c #9E9CA1",
"]. c #9C93B1",
"[. c #A28CAB",
"{. c #A09EA1",
"}. c #A597AB",
"|. c #A997B3",
" X c #AB94B4",
".X c #B49ABC",
"XX c #9FA1A1",
"oX c #A2A2A2",
"OX c #A6A9A6",
"+X c #A7A7A9",
"@X c #A5A9AA",
"#X c #ABABAB",
"$X c #AFA6B4",
"%X c #B2ADB1",
"&X c #B4A8B9",
"*X c #B3B4B3",
"=X c #B5B1B9",
"-X c #BABABA",
";X c #DC818E",
":X c #CA9D88",
">X c #D98292",
",X c #E2838E",
"<X c #E9898F",
"1X c #E38690",
"2X c #E98792",
"3X c #E58991",
"4X c #EC8B92",
"5X c #CDA18C",
"6X c #D7A688",
"7X c #CFA792",
"8X c #DAB39A",
"9X c #E1AD92",
"0X c #E7B797",
"qX c #D59AA8",
"wX c #F19FA3",
"eX c #D7B4AD",
"rX c #E8B5A7",
"tX c #F4C09A",
"yX c #E9C4A8",
"uX c #F8CCAD",
"iX c #EACCB6",
"pX c #F8CEB3",
"aX c #F7D3B9",
"sX c #8584D1",
"dX c #B69FC0",
"fX c #BCA6C6",
"gX c #B6A7D0",
"hX c #C4AFCF",
"jX c #CAB5D4",
"kX c #C8B7D7",
"lX c #D3B9DD",
"zX c #D7BFE2",
"xX c #C1C2C2",
"cX c #FDDCC3",
"vX c #F9D8C4",
"bX c #FFE2C6",
"nX c #FFE5CB",
"mX c #FFE8C9",
"MX c #DAC3E4",
"NX c #E2CFE9",
"BX c #F3F1F4",
/* pixels */
"oXoXoXoXoXoXoXoX).oX^.oXoXoXoXW.j.n.j.Y.{ | | (.E.E.(.(.OXOX(.oXoXoX).oXR.W.oXW.(.oXoXoXoXoXoX{.oXoX",
"oXoXoXoXoXoX).{.oXU.F.oX).oXoXw.K 1X_ W $.,.;. .| ] (.(.(.(.^.oXoXoXoXoXoXoXoX~.oXoXoXoXoXoX^.oXoX).",
"oXW.oXoXoXoXOX{.oXU.S.oX).oX(.Z A d l %.1.4.tX3.;.-.| U.oXoXOX(.G.OXoXoXoXW.E.G.oXoXoXoXoX(.oXoXoXoX",
"oXoXoXoXoXoXoXoXoX#XU.W.oXoXXXi.l ..%.%.2.4.4.4.4.4.:.-.~.).W.W.U.#X+X+X#X%XOXU.oXoX(.oX{.oXoXoXoXoX",
"oXoXoX{.oXoXoXoXoX{.G.oX(.XX(.c #.%.%.>.&.1.4.3.4.>.%.%.[ XXE.G.G.OX).oXW.).(.oXoXoXoXoXoX{.W.oXoX).",
"oXoX).oXoX).oXW.oXOXG.oXoXOX] o.>.<.%.>.3.$.<.1.#.&.%.%.@.!.@XoXU.oXoXoXoXoXoXW.^.oXoXoXoX(.^.oXoXoX",
"OX{.oXoXoXoXoXoXOXW.e (.).@XR X.<.>.1.>.$.:.+.,.#.@.%.&.#.!.XXoXW.oXoXoXoXoX).W.oX^.oXoXoX).oXoXW.oX",
"oXoXoXoXoXW.oXoXoXW.e W.oX'.I X.+.%.:.2.z x #.@.<.@.O.#.X.!.XXoXW.oXoXoXoXoX).(.oXoXW.oXoX{.).oXoXoX",
"OXoXoXoXE.G.oX).#XU.6 oX).R #.%.x +.O.&.x d ` z z +.#...^ Q.@XoXW.oX).oXoXOXoXW.oX{.{.oXoXoXoXoXoXoX",
"U.{.).oXw e oXE.G.&   G.E.j @.x k o...o.g s E 6X} d x O.+.x H.D.6 E.W.~.T.T.S.S.OX^.(.oXoXW.oX).oXoX",
"D.W.oXW.S.T T.S.q q q e G.P x l k ..l k i * X 6X0X*.; p p p s w q e T.W.*XxXS.q #XW.^.oXW.W.oXoXoXoX",
"OXoXoXoX+XOXoXOX#X#XOXOXOX~.P k k p p j 0X].5.yXuXyX~.j t p ] #X#X%XOXoX#X%X#XG.oXoXoXoXoXoXoXoXoX{.",
").oXoX).).oXoX^.(.(.W.).).oXR k x ^ k ~ vXkXsXbXbXvXgXE r I oX'.oXoXoXoXoX).U.G.oX^.oXoXoX{.oXoX).(.",
"oXoXoX{.^.oXoXoXoX).oX).oXY.p p ..O.t } rXA.4XcXbXvXwXf g Y.@XXXoXoXoXoXoXoXoXG.OX{.W.oXoX(.).oXoXoX",
"oXoX).oXoX^.oX).oXoXoXoXoXW.Y.H.c <.' i :XaXvXaX5XrX9XE U.oXXXXXoXoXoXoXoXOXoXG.W.oXoXoX).oX'.oXoXoX",
"oXoXoXoXoXoXoX{.).oX).oXXXoXoXOXH.' 4.' ;  .yX8X5X=.R ).OXoXoXoXoXoX{.oXoXoXOXS.R.oX{.oXoX).oXoXoX{.",
"W.oXoX).oXoX{.W.oXoXoXoXoXoXoXW.).L l <.` + f W W a U H.).oX{.).oXoXoXoXoXoXOXe G.OXOX^.oXoXoXoXoXoX",
"oXoXoX{.oXoXoX+XoXoXoXoXoXoX{.OX@X] X ` #.d ( 2XV.F =.:XQ.Y.oXoX(.oXoXoXoXoXoXw G.^.P.oXoXoXoXoX{.oX",
"oXoXoXoXoXoXH.R W.oXoX(.oXoX{.r.U [ =.p O.f K m.N P mXnXiXE I T.OXoXoX).).(.oXq w Q.[ H.XXoXoXW.W.oX",
"oXoXoXoX@XT :X{ j H.oXOXW.L.8.1 [ tX6Xz x f ( G A ; 0XcXnXvX{ C d.P.T.OXOXOXoXG.U :XaXh H.oXoX{.oXoX",
"oXoXoX^.OX7 7XrX5XL w.p.e.V G g.0X} s p c n.x.K ( A ; c 8XrXM.N.h.h.g.a.a.F.r.7 c 7XbXpX{ W.oXoXoXoX",
"oXoXoXoXOXW.P -.L hX.Xj.C.C.B.g.j . + ) ,X4X;XC.,XB.b + * b A.,X3X4X>Xv.j.}.P.U 5X5X0XaXE W.OXoXoX).",
"oXoXoXW.oX7 h E &XNXqX2X3X3XC.n.- & b 2X2X2X1X1X,X3Xc.D 8.G.v x.3X1X1X2XqXXXXX}.aX5X*.=.I oXoXoXoXoX",
"^.).{.OXoX; W Y BXBX4XA.1XV.K H n I.U F M.M.;X4X4XV.H N w.OX7.v n.3X3X,X/.XX&Xn 6X0X6Xh P.OXW.).^.W.",
"OXoXoXS.6 5 ; ; BXBX3X1XV.( K < $ $ : % @ V q.0.g.F J V '.OXW., b c.N.c.g.XX}.% i  .E L I.T oXOXOXoX",
"-X*X*X-X-X-XxXr.NXBXx.K ( H n oX#X(.T.oX2 V G G H J ) F J.@XoXoXF.1 G J Q.*X`.o . * L oX%XOX#X*X-X-X",
"W.{.{.oXoXoX@X9 zXzXG G V 1 I.oX{.oXoXOX2 A 0.J ) ( V.A.F d.OXoX+Xr.@ y f.OX`.O . 8 #XoX(.oX^.{.{.W.",
"oXOXoXoXoXoXOXr.[.lXd.B + D.@XoXoXoXoXOX2 ) ;X! A.1X1X3XC.D J.oXXXoXS.+ l.=X&XO   2 OXXXXXoXoXoXoXoX",
"OXoXoXoXoXoXOXP.2 zXhXa.2 oX).oXoXoX@Xu.Q 3X3X;Xm.3X3XC.N.N.9.L.XXW.#Xe d.MXlXw.o G.OX{.oXoX).oXoXoX",
"{.oXoXoXOXoXOXW.9  XlXa.D.OX(.XXoXoXT O ! 4X,X3X,X;X3XC.m.j.vX7X/.OXoXR.9 .XlX X2 E.{.oXoXoXoXoXoXoX",
"oXoXoXoXoXoX^.oX).T 9 F.OX).(.XX).] { rXQ.M.3X1X3X,X,X,XF eXnXnX!.H.OXoXT.9 9 r.oXoXW.oXoXoXOXoXoXoX",
"oXoXoXoXoXoXoXoXoX(.G.oX).).(.(.] /.mXmXiXm 4X,X3X,X3XZ.Q pXcXnX8XI oXW.U.U.U.S.G.W.oX'.{.W.W.W.oX^.",
"{.oXoXoXoXoXoXoX+XY.T (.).oX'.R._.cXbXcXiXn C.3X,X3XN.v.Q 0XcXcXbXE Y.W.U.R.W.U.U.#X*X#X^.W.S.T.^.W.",
"oXoXG.W.oXoXoXoXoXU.S.+X).W.|.}.'.eXbXbXyXv C.<X4XV.K x.g.0XuXbXeXL.`.oXoXoXoXOXOXoX#XoXoX#XW.W.oXoX",
"oXW.G.oXoXoXoXoXoXW.D.+XW.`.oXOX'.L.0XuX6Xv ( N.N.K J v.v } rX$X`.&X|.{.oXW.U.oX).).).oXXXXXG.W.oXoX",
"oX).oXoXoXoX^.).OXU.e {.`.oXoXW.+X}./.0XE 1 ( J K K K N.1 = ~.XXoX+X&X[.).oXoXoXoXoXoXoXXXXX] E.oXoX",
"oXoXoXoXoXoX).oXoXT.L.}.W.oX^.&XkXhXa.P 5 - ( K K K K v.B 4 fX&X(.).oX}.W.{.oXoXoXoXoXoXoX@XG.U.oXoX",
"T.OXOXOXoXoXoX).#XJ.L.#XoX$XjXhX X9 6 R.(.v / K K ( K m.B # k.kXOXW.oX{.}.oXoXoXoX^.oXoXXXoXU.T.oX).",
"& G.T.S.T.W.E.T.G., w #XlXkX Xy.P.& > OXU.n z.K K K K m.B # # k.hX+XW.+X|.J.W.oXoX{.oX).).OXG.U.oXoX",
"U.T.#XU.oX-X*XOXoXU.7.fX.Xd.f.s.U.G.#XoXU.Y n.K K K K m.B # N + 6.`.+X{.}.t.s.R.oXoXoXoXoXoXU.W.oXoX",
"*X*X*X%X#X%X*X*XxX#XG.s._. XMX XL.%XW.oXU.Y v.J K K ) V.B # V 1 G.J.R.oXoX[.hXy.U.oXoXoX'.oXT.).oXoX",
"W.).(.'.(.OXS.5 W.T.U.^.t._.jXhXF.G.T.OXU.m v.z.K K v.;XV V V v W.OXL.s.J.|.#X`.L.oXXXoXoXoXW.).).oX",
"oXoXOXOXoXoX*X-X(.).G.OXR.6..XfXJ.).^.oXI.m B.C.) J ;X;XV K H 1 E.{.oXU.6.f.$XNXk.T.oXXXoXOXT.).oXoX",
"oX).oXoXoXoXoX*X+XoXoX^.oXy.k.k.u.S.^.oXU.m C.1XC.N.3X>XV H / 1 E.oXoXoXoXy._.fXk.K.oXoXoXoXT.(.oXoX",
"oX{.).W.XXoXoXW.oXoXR.{.OXU.t.[.a.K.^.OXT.v c.1X,X,X3X;XV n.c.v E.oXoXoXoX{.t._._.y.oXoX^.oXE.W.oXoX",
"oX(.oXoXoXoXoXoXoXT.E.#XW.y.f.].w.% G.+XU.1 ( 1XC.m.3X;XN m n = E.+X(.oXXXoXL.s._.y.W.oXoXT.6 ^.oXoX",
"oXoXoX{.oXoXoXoXoX^.w D.4 1 d.p.V % S.W.q v b.4XV.h.4XC.w.G.U.T.#XW.oXoX'.OXU.a.[.a.u.oXoXG.6 W.U.oX",
"oXW.).oXoXXXoXoXoXT M Q h.z.D q.n.3 OXOXE.= a Z Z 0.<XV.e.*X*X-XxX%X^.oX@XK.< 8.8.9.C oXoX#X%XOXOXoX",
"oXoXoXoXoXoX{.oXOX0 ! _ ! b b A ! 9 R.oX).U.D.K.L.e.e.e.i.oX'.W.^.#XoXoXW.= D / v.,XF E.oXoXU.(.oXoX",
"oXoXoXoX).oXoXoXOXW.5 0 0 0 0 q r.OX).W.oXoXOXOXoX).E.XXoX'.oXoXoXW.oXoXoX0 @ a n b i.XXoXoXR.^.oXoX"
};
