/* XPM */
static char *_b1f89deb39a4c49fb59c0da16bc1918YbmNb4OtquSngkXo[] = {
/* columns rows colors chars-per-pixel */
"50 50 139 2 ",
"   c #161514",
".  c #242423",
"X  c #262826",
"o  c #2A2926",
"O  c #2D2D2B",
"+  c #312F2F",
"@  c #2F312E",
"#  c #32312D",
"$  c #2D2F31",
"%  c #343433",
"&  c #393735",
"*  c #373936",
"=  c #3A3936",
"-  c #353638",
";  c #373838",
":  c #3C3C3B",
">  c #413E3B",
",  c #3F403E",
"<  c #42423E",
"1  c #3E3F41",
"2  c #3E4242",
"3  c #444543",
"4  c #494644",
"5  c #474845",
"6  c #4A4946",
"7  c #454748",
"8  c #464A4A",
"9  c #4C4C4A",
"0  c #504E4C",
"q  c #4E504D",
"w  c #52524D",
"e  c #4D4F51",
"r  c #4E5254",
"t  c #535553",
"y  c #585653",
"u  c #565856",
"i  c #5A5955",
"p  c #53565A",
"a  c #55595A",
"s  c #5B5D5B",
"d  c #635F5D",
"f  c #5E615E",
"g  c #61625E",
"h  c #68665A",
"j  c #565F63",
"k  c #5C5E61",
"l  c #5D6263",
"z  c #5E6569",
"x  c #636563",
"c  c #696664",
"v  c #656866",
"b  c #6A6A66",
"n  c #636669",
"m  c #656B6A",
"M  c #6B6D6B",
"N  c #716F6C",
"B  c #6D716D",
"V  c #71726E",
"C  c #78776D",
"Z  c #79796F",
"A  c #6C6E70",
"S  c #667273",
"D  c #6D7373",
"F  c #6C767A",
"G  c #6E797D",
"H  c #737572",
"J  c #787771",
"K  c #757975",
"L  c #7B7B75",
"P  c #727679",
"I  c #747B7B",
"U  c #7A7E7B",
"Y  c #817F77",
"T  c #817E79",
"R  c #75807E",
"E  c #7D817D",
"W  c #848277",
"Q  c #82837D",
"!  c #8B867B",
"~  c #87887F",
"^  c #8B897D",
"/  c #757D81",
"(  c #7A7E81",
")  c #758284",
"_  c #7D8382",
"`  c #7E8886",
"'  c #7D8489",
"]  c #7E8A8C",
"[  c #7C8890",
"{  c #838682",
"}  c #8A8781",
"|  c #858984",
" . c #8A8C85",
".. c #81878A",
"X. c #858B8A",
"o. c #8A8E8A",
"O. c #8E9086",
"+. c #87908E",
"@. c #8C918C",
"#. c #8F988E",
"$. c #929387",
"%. c #91948D",
"&. c #93998F",
"*. c #99998E",
"=. c #858E91",
"-. c #879191",
";. c #8C9492",
":. c #8F9996",
">. c #8E979B",
",. c #8E9B99",
"<. c #929693",
"1. c #949A94",
"2. c #999C96",
"3. c #959C9A",
"4. c #9A9E9A",
"5. c #95A09D",
"6. c #9BA19D",
"7. c #A0A39E",
"8. c #999FA0",
"9. c #9CA4A1",
"0. c #9DA9A6",
"q. c #9FACAB",
"w. c #A1A6A2",
"e. c #A4A9A5",
"r. c #A8AAA5",
"t. c #A0A7A9",
"y. c #A3ACAA",
"u. c #ABAFAA",
"i. c #AAB0A6",
"p. c #A6B1AE",
"a. c #ACB3AE",
"s. c #ACB5B2",
"d. c #B0B5B1",
"f. c #B3B9B5",
"g. c #B4BDBB",
"h. c #BEC1BD",
"j. c #BFC6C3",
"k. c #C4D1CE",
"l. c #CED4D1",
/* pixels */
"<.@.| O.2 s.s.r.e.e.7.6.<.$.O.} |  .X.f 9 g.y.6.<.X.|  .{ Q _ #.<.: x o.B | <.6.<. .O U o.o.{ $.4.4.",
"<.o.Q E , p.g.s.u.r.r.7.<.o. .{ _ { <.a * i.2.Q  .~ ! ! K | 4.%.@.1 a o._ |  .9.<.| X K o.{ } { <.<.",
"X.Q | H , a.f.f.a.a.e.9.1.o.| {  .} %.v # 9.#.Q ! ! Q E ;.6. .{ :.- u { E +.O.w.;.{ X L o.T Q Q (  .",
"E E X.M 7 d.u.w.y.e.9.3.<.2.^ ^ $.o.4.b X 1.1.X.! ~ Q  .@.~ ` E X.% r { Q { %.6.+.{ . | | Q U U U T ",
"_ _ o.U : @.w.w.6.6.:.U 1.2.~ ^ o.<.6.f % 5.3.;. . . .~ { ` &.E _ 3 9 ( E | <.1.;.E X @.X.{ E U T L ",
"2.9.t.I 3 D _ ..X.| P X.f.r.6.6.w.e.P z < 6.#.&.3.;.:.e.5.1.;.E ;.u k _ { {  . .=.D . w.r.2.3.3.4.4.",
"M A p % . u 9 9 r v t f V h v B B f q q * t < < u a 9 8 5 5 5 q s > 8 e ; $ @ # & %   s V b s x M i ",
"H x b M M v H U 9 K y.;.| R K H b b H b b v v B 9 5 b f g g M C P K J H U J 3 _ o.} Q I U } { 9 P <.",
" .{ o.o.@.9.g.l.9 m s.p.q.y.e.y.7.#. .X.{ { ) +.f H j.f.y.1.:.5.e.9.9.f.s.f.3 9.a.1.1.5.p.g.k.9 3.g.",
"} Q I I E @.1.p.& u w.5.1.&.&.O. .O.| | O.~ { | s v p.6.1.o.{ O.@.%.3.9.e.w.% I E K _ X.-.:.s.3 ( o.",
"} ^ { T K _ X.6.2 u 0.5.&.#.#.O.^ O. . . . .~ 5.M u a.5.1.+. .~ ;.E  .6.4.e.% D  .~ _ | X.;.q.2 A ' ",
"^ ^ Q Q K P E @.9 u 6.$.#.O.+.&.O.^  .^ ~ ~ ~ +.l , ` @.O. .~ E ;.B R :.#.4.O D ;._ R _ +.X.3., A ' ",
"^ ^ E E E P I _ q r 6.@.#.@.| | #.^ O.~ ~ { ~ | g < E E { E Q ~  .~ { +.#._ . ` 6.;.) Q #.{ 1.2 A ( ",
"~ Q _ U E D P / q 3 <.#.@.O. .E @.&. . .~ ` ~  .b y 5.~ | ` _ | X.X._ +.o.+.@ X.a.5.X.) ] | ;.; A _ ",
" .| ' _ _ E _ ' r s 6.@.1.&.#. .{ :.5.&.&. .` +.S t s.5.@.@.O. .{ | E { +.r.3 X.h.0.0.,.3.;.:.: D 1.",
"a a m x s x p p * : l q f i f f m B ) | K K D l 3 X H I m f w q 5 9 w t x M 8 r f l r l z n a o 8 x ",
"4 9 5 3 4 0 5 , M Q L Q Y L Y Z Z N < w s i x g w < < w y i o h 6.4.7.6.2.6.e.6.6.i.f # 9 9 9 9 0 w ",
"E u.3.o. .6.3.v p.3.<.+. . . .@.@.1.g <.a.r.a.d.a.a.a.i.a.h.9 i #.@.6.1.*.&.&.6.w.f.v K 3.-.1.2.1.4.",
"x X.Q ! Q 4.E 9 ;.@.@.O.}  .@.%.@.@.9 E <.1.p.9.6.6.6.O.1.f.i t  .Z E  . .@.@.*.9.1.9 v _ E X.o.1.Q ",
"x E L ! <.9.K 5 +. .@.6.2.4.6.1.@.1.w B o. .1.1.O.@.X.{ 9.p.w s W E E E E  .5.5.+.L @ v X._ { #.<.U ",
"x { T  .3.<.M 3 X.|  .^ ^  . .~ O.1.0 h Q  .E @. .E | <.1.1.a x  .E Q E o.%.o.U K R o s X.` ` :.| E ",
"x @.U X.;.| x > D  .W W ^ }  . .@.+.< V W ^ O.@.@.Q 2.4._ +.f s X.E ~  .{ Q U U E  .: p ] ` ` @.E ~ ",
"l :.| E E _ M < V %.Q W ! ^ X.o.@. .q b ~  .{  .} O.1.{ U  .i s X.) _ E Q { E T ~ ` : s ) ' X. .Q E ",
"x  .{ { _ -.E < g {  .{ X.| { o.<.5.9 L  . .$.W Q $.X.{ | #.i i +.` +.@.E H E Q | | 7 M >.X.+.X.E E ",
"s U D D _ =.x : i c  . .X.X.{ | N M # c T C h 0 4 y h g J V < % L U T b 0 b H J V V : w P x D M M v ",
"4 6 9 9 ; : # O & : & 1 9 u t 6 5 0 i o > i y y w w w y # : w < 0 y p 0 0 0 9 6 4 9 9 w 4 O 6 4 < < ",
"Q U U T H M N Q { L i 9  .o.3.4.6.9.7.0 x r.2.*.*.2.1.%.< @.6. .} } %.%.$. .o.@. . . .1.{ 6  .{ ;.o.",
"o.P P I { n d K E M d d ..A o.t.t.>.{ 0 y 2.{ Q }  . .E = @.2.J T T } } Q Q Q T }  .Q _ { > U K E 1.",
"<.( P Q U M n A Q c d p _ m l o.4...T 3 i o.T { o.E { U = %.| Q { } .... .{ ! T Q  .Q  .V : T } T K ",
"<.=.(  .K P H P _ ( k d ' A z U >.( N > y { Q  .X.( _ U # A {  .} o.U }  . .! ! ^ { { Q C + N  .} { ",
"-.<.Q { U / U U ' ..x k ( P n ..o.J c > s E { {  .I ..T + H @...X... .} o.} ! ! { { } { o.% c  .} o.",
"} <.o.{ P / ( T _ -.V k ( / A ....b c > d ..(  .Q P <.T & _ =. ..... .o.o.} ! Q Q { | @.o.& a o. .o.",
"{ ..=.{ K U ( ..| ;.K s X.' ..U K d c 3 s Q J K U o.7.V & _ | _ { X.o.<.4. .T { { {  .@.o.& 4 Q o.| ",
"o.o.@.1.{ U ..I _ 3.K 9 ( ;.o.E N x M : s  .{  .2.9.o.V < { |  . .+.2.6.#.Q T { { { @.6.6.: w x U H ",
"i y w d 3 3 t 3 2 a 5 . > 6 9 6 6 6 4 o # 6 0 0 0 3 9 : . 6 5 q 4 3 w 4 + : * * + & 2 y s o & 7 : % ",
"v x H b H N a & : n H H M M M H % x C L Q T L K Q c 0 U K E } E U Q Q  .s 9 E g y 2.D K Q M Q <.Q 7 ",
") / -.+.@.o.9.m n o.X.{ ( _ { o.9 I | U E R E _ o.D t 8.3. .O.+.;.2.5.1.b p 5.-.;.w.m ) 3.{ o.9.3.7 ",
"G U P P Q Q ;.l n | _ E I ( ! U 7 x I U I D F F ( c k y.<.Q Q @.;.5.#.X.f r ] ) ' <.9 n o.X.U ..X.: ",
"I E { X.X.{ X.s x o._ P I / { U 2 a P E Q E D D / V x y.4.Q @.<.6.1.` { f p ` G I ..3 A X._ { { ( 3 ",
"I E { w.s.1.( M x | E U G P I P 3 D { E _ | E I ( H u w.6. .#.3.1. .Q Q u r ] G U ( 7 D -...X.=.U 7 ",
"I D P ;.r.' / l x ..I I F F S S 3 F ) D Q ` o. .} D t -.X.| <.%. ._ P Q a r [ / U { 3 m -.....X.P 9 ",
") I E / +./ / n M _ / P G F F / 3 U { E { | |  .@.H r X.{ { 1.o.| U U Q l j [ / _ o.t D -...X.X.P r ",
"H B U -.U M D 8 9 P D M l k l I : b Q U J B B B I M % A E B U K H B M M 9 r [ I I ( 9 P ] ' ] ] { - ",
"t 9 9 t 9 8 & . w x t t u y t t 0 g x g h s 5 X 6 9 : : : @ & > 4 < , 4 : 3 3 2 a u e d x s x l a t ",
"o. .o.{ U ;.M n 3.| J H Q  .$.o.<.2.{ @.;.<.o.- -.0.3.;.;._ { {  .{ E | <.r.{ t | I ( ( { { { | { o.",
"%.o.o. .:.=.k D ' E _ ) {  . .o.| E { { { { o.3 A o.3.8.9.5.:.{ K H D D K +._ a I { _ _ _ / _ _ U _ ",
"o.o.} <.d.;.a D _ D E | { }  .o.{ { o. . .|  .9 A ;.3.4.6.1. .K K K I P H E E u ' U <.{ U I U I U { ",
"o.o.%.d.p.X.s A _ A I E _ E {  .Q U  .{ o._ ..9 m o.1.1.#. .L L U U I I K E v t <.H { 2.| | { U U Q ",
"@.$.%.7.6.-.l z ` ' U R U / E { { E { E { E U 8 D { I { | E Q L K U P E U Q f q 7.O.I )  .o.{ E E { ",
"@.{  .%.;.-.n x _ G / U I G P _ L J E R E E ) 8 M I o.{ H U U I P D A o.U E m 8 9.<.{ _ I U ) U Q { "
};
